<svg width="105" height="105" viewBox="0 0 105 105" fill="none" xmlns="http://www.w3.org/2000/svg">
<path d="M69.1264 69.6417H66.8039L66.2941 70.225H74.9608C74.923 70.2639 74.8853 70.3028 74.8475 70.3417C74.8097 70.3806 74.7531 70.4389 74.6776 70.5167H61.3094C61.1206 70.7111 60.9129 70.9056 60.6863 71.1C60.4975 71.2944 60.2898 71.4889 60.0632 71.6833H64.1983L63.4619 72.2667H71.1656L70.7124 72.5583H67.3704C67.3326 72.5972 67.2571 72.6361 67.1438 72.675C67.0683 72.7139 66.9927 72.7722 66.9172 72.85H63.122L61.5359 73.725H63.7451C63.2542 73.9583 62.7633 74.1722 62.2723 74.3667C61.7814 74.5222 61.2716 74.6972 60.7429 74.8917H58.7037C57.4198 75.2806 56.0225 75.5722 54.512 75.7667H54.7952C54.191 75.8444 53.5679 75.9028 52.9259 75.9417C52.284 75.9806 51.642 76 51 76C50.2825 76 49.565 75.9806 48.8475 75.9417C48.1678 75.9028 47.5069 75.8444 46.8649 75.7667H46.6383C45.0145 75.5722 43.5606 75.2806 42.2767 74.8917H44.3159C43.7495 74.6972 43.2208 74.5222 42.7298 74.3667C42.2389 74.1722 41.748 73.9583 41.2571 73.725H39.0479C38.7836 73.5694 38.5192 73.4333 38.2549 73.3167C37.9906 73.1611 37.7262 73.0056 37.4619 72.85H41.3137L40.8606 72.5583H44.2026C44.1649 72.4806 44.1082 72.4222 44.0327 72.3833C43.9572 72.3444 43.8816 72.3056 43.8061 72.2667H36.1024C35.9513 72.1889 35.8192 72.0917 35.7059 71.975C35.5926 71.8583 35.4793 71.7611 35.366 71.6833H31.1743C30.9855 71.4889 30.7967 71.2944 30.6078 71.1C30.3813 70.9056 30.1736 70.7111 29.9847 70.5167H43.3529C43.3152 70.4389 43.2774 70.3806 43.2397 70.3417C43.2019 70.3028 43.1641 70.2639 43.1264 70.225H34.4597C34.3086 70.0694 34.1576 69.875 34.0065 69.6417H36.329C36.2912 69.5639 36.2535 69.5056 36.2157 69.4667C36.1779 69.4278 36.1402 69.3889 36.1024 69.35H43.183L42.6732 68.475H39.1612L38.9913 68.1833H31.0044C30.9666 68.0278 30.9099 67.8917 30.8344 67.775C30.7589 67.6194 30.6834 67.4639 30.6078 67.3083H34.4031L34.0632 66.4333H32.7037L32.5904 66.1417H33.2135C33.1757 65.9861 33.138 65.85 33.1002 65.7333C33.0625 65.5778 33.0247 65.4222 32.9869 65.2667H32.5338C32.5338 65.1111 32.5149 64.975 32.4771 64.8583C32.4771 64.7028 32.4582 64.5472 32.4205 64.3917H31.9673C31.9673 64.2361 31.9484 64.1 31.9107 63.9833C31.9107 63.8667 31.9107 63.7306 31.9107 63.575V63.5167H31.854C31.854 63.4389 31.854 63.3806 31.854 63.3417C31.8918 63.3028 31.9107 63.2639 31.9107 63.225H33.2135C33.4023 62.6028 33.7988 62.2917 34.4031 62.2917H45.1656C45.7698 62.2917 46.223 62.3694 46.5251 62.525C46.8272 62.6806 47.167 62.9139 47.5447 63.225H46.2418L46.2985 63.2833C46.374 63.3222 46.4306 63.3611 46.4684 63.4C46.5439 63.4389 46.6006 63.4778 46.6383 63.5167H46.695C47.1859 63.9056 47.7901 64.1972 48.5076 64.3917H49.0174C49.5084 64.5472 50.1692 64.625 51 64.625C51.4909 64.625 51.9441 64.6056 52.3595 64.5667C52.7749 64.5278 53.1336 64.4694 53.4357 64.3917H53.2658C54.1344 64.1972 54.6819 63.9056 54.9085 63.5167H54.7952C54.8707 63.3611 54.9085 63.2639 54.9085 63.225H55.4749L55.5316 62.9917C55.5316 62.6417 55.3994 62.3306 55.1351 62.0583H54.6819C54.342 61.7083 53.7378 61.4167 52.8693 61.1833H52.6994C52.3595 61.0667 51.963 60.9694 51.5098 60.8917C51.0566 60.775 50.528 60.6778 49.9237 60.6H49.5839L47.2614 60.25C46.9971 60.2111 46.7328 60.1722 46.4684 60.1333C46.2418 60.0944 45.9964 60.0556 45.732 60.0167C44.1837 59.7444 42.6921 59.3556 41.2571 58.85H40.2375C39.7088 58.6556 39.2179 58.4611 38.7647 58.2667H37.9717C37.7829 58.1889 37.594 58.1111 37.4052 58.0333C37.2164 57.9167 37.0276 57.8 36.8388 57.6833H31.9107C31.6463 57.5278 31.4009 57.3917 31.1743 57.275C30.9477 57.1194 30.7211 56.9639 30.4946 56.8083H41.0305C40.8417 56.6528 40.6529 56.5167 40.4641 56.4C40.313 56.2444 40.1431 56.0889 39.9542 55.9333H28.6819C28.5686 55.8556 28.4742 55.7583 28.3987 55.6417C28.2854 55.525 28.191 55.4278 28.1155 55.35H31.061C30.7211 54.9611 30.4001 54.5722 30.098 54.1833H30.9477L30.6078 53.6H25.1699C25.1322 53.5222 25.0944 53.4639 25.0566 53.425C25.0189 53.3861 25 53.3472 25 53.3083H37.915C37.8395 53.1528 37.764 53.0167 37.6885 52.9C37.6129 52.7444 37.5374 52.5889 37.4619 52.4333H27.549L27.2092 51.5583H35.1961L35.0828 51.2667H32.7037L32.5904 50.975H33.7233C33.7233 50.8972 33.7044 50.8389 33.6667 50.8C33.6667 50.7611 33.6667 50.7222 33.6667 50.6833H33.4401L33.2702 50.1H32.9303L32.8736 49.5167H32.7603V49.225H30.9477C30.9099 49.1472 30.8911 49.05 30.8911 48.9333C30.8911 48.8167 30.8911 48.7194 30.8911 48.6417H29.2484L29.1917 48.0583H35.6492C35.6115 47.9806 35.5926 47.8833 35.5926 47.7667C35.5926 47.65 35.5926 47.5528 35.5926 47.475H36.4989V47.4167C36.4989 47.2222 36.4989 47.0278 36.4989 46.8333C36.4989 46.6389 36.5178 46.4639 36.5556 46.3083H34.1198C34.1576 46.1528 34.1765 46.0167 34.1765 45.9C34.1765 45.7444 34.1954 45.5889 34.2331 45.4333H38.1983C38.1983 45.3556 38.1983 45.2972 38.1983 45.2583C38.236 45.2194 38.2549 45.1806 38.2549 45.1417H34.2331C34.3086 44.9083 34.3464 44.7139 34.3464 44.5583H33.7233L33.8932 43.975H32.9303C33.0436 43.5472 33.1757 43.1583 33.3268 42.8083H33.78L34.0065 42.225H34.6296L35.1394 41.35H34.573C34.6863 41.1944 34.7807 41.0583 34.8562 40.9417C34.9695 40.7861 35.0639 40.6306 35.1394 40.475H34.6863L35.366 39.6H36.5556C36.5933 39.5222 36.6311 39.4639 36.6688 39.425C36.7066 39.3861 36.7444 39.3472 36.7821 39.3083H35.1961C35.3471 39.1528 35.4982 39.0167 35.6492 38.9C35.8003 38.7444 35.9513 38.5889 36.1024 38.4333H37.0087C37.2353 38.2389 37.4619 38.0444 37.6885 37.85C37.915 37.6167 38.1605 37.4222 38.4248 37.2667H39.4444C39.671 37.1111 39.8976 36.975 40.1242 36.8583C40.3508 36.7028 40.5962 36.5472 40.8606 36.3917H40.6906C40.7662 36.3139 40.8606 36.2556 40.9739 36.2167C41.0871 36.1778 41.1816 36.1389 41.2571 36.1H40.4641C40.5396 36.0222 40.634 35.9639 40.7473 35.925C40.8606 35.8861 40.9739 35.8472 41.0871 35.8083H40.5207C41.0494 35.575 41.597 35.3611 42.1634 35.1667C42.7676 34.9722 43.3718 34.7972 43.976 34.6417H44.8257C45.6943 34.4472 46.6006 34.2917 47.5447 34.175C48.5265 34.0583 49.5461 34 50.6035 34C52.6049 34 54.4931 34.2139 56.268 34.6417H55.4749C56.6834 34.9139 57.854 35.3028 58.9869 35.8083H59.4967C59.61 35.8472 59.7233 35.8861 59.8366 35.925C59.9499 35.9639 60.0632 36.0222 60.1765 36.1H60.9695C61.045 36.1389 61.1394 36.1778 61.2527 36.2167C61.366 36.2556 61.4604 36.3139 61.5359 36.3917H61.7059C61.9702 36.5472 62.2157 36.7028 62.4423 36.8583C62.7066 36.975 62.9521 37.1111 63.1786 37.2667H62.2157C62.5178 37.4222 62.7821 37.6167 63.0087 37.85C63.2731 38.0444 63.5185 38.2389 63.7451 38.4333H62.8954L63.8017 39.3083H65.3878L65.671 39.6H64.4815C64.6325 39.7556 64.7647 39.9111 64.878 40.0667C65.029 40.1833 65.1612 40.3194 65.2745 40.475H65.7277L66.4074 41.35H66.9172L67.427 42.225H66.8039C66.9172 42.4194 67.0116 42.6139 67.0871 42.8083H66.634C66.7473 43.0028 66.8417 43.1972 66.9172 43.3917C66.9927 43.5861 67.0683 43.7806 67.1438 43.975H68.1068C68.1823 44.2083 68.22 44.4028 68.22 44.5583H68.8998C68.9375 44.6361 68.9564 44.7333 68.9564 44.85C68.9564 44.9667 68.9753 45.0639 69.0131 45.1417H73.0349V45.4333H69.4096C69.4474 45.5889 69.4662 45.8028 69.4662 46.075V46.3083H67.3704C67.2193 47.0083 66.8417 47.3583 66.2375 47.3583H54.9085C54.3798 47.3583 53.9455 47.2806 53.6057 47.125C53.3036 46.9694 52.9826 46.7361 52.6427 46.425L52.4728 46.3083H54.5686C54.3798 46.1528 54.1155 45.9972 53.7756 45.8417C53.4357 45.6472 53.0015 45.5111 52.4728 45.4333H50.4336C49.6405 45.55 49.093 45.8417 48.7909 46.3083H51.2266C51.1133 46.5417 51.0566 46.775 51.0566 47.0083C51.0566 47.2028 51.0755 47.3583 51.1133 47.475H50.2636C50.3014 47.6694 50.4524 47.8639 50.7168 48.0583H44.3159C44.5425 48.2528 44.939 48.4472 45.5054 48.6417H47.1481C47.4503 48.7583 47.809 48.875 48.2244 48.9917C48.6776 49.0694 49.1496 49.1472 49.6405 49.225H51.4532C51.7553 49.2639 52.0763 49.3028 52.4161 49.3417C52.756 49.3806 53.1147 49.4389 53.4924 49.5167H53.549C54.191 49.5944 54.8141 49.6917 55.4183 49.8083C56.0225 49.8861 56.589 49.9833 57.1176 50.1H57.4575C57.9107 50.1778 58.3261 50.275 58.7037 50.3917C59.1191 50.4694 59.5156 50.5667 59.8932 50.6833H60.1198C60.3086 50.7222 60.4786 50.7611 60.6296 50.8C60.7807 50.8389 60.9317 50.8972 61.0828 50.975H60.0065C60.1576 51.0139 60.2898 51.0528 60.403 51.0917C60.5541 51.1306 60.7052 51.1889 60.8562 51.2667H63.2353C63.3486 51.3056 63.4619 51.3444 63.5752 51.3833C63.7262 51.4222 63.8584 51.4806 63.9717 51.5583H55.9847C56.74 51.8694 57.3442 52.1611 57.7974 52.4333H67.7102C67.9368 52.5889 68.1634 52.7444 68.39 52.9C68.6166 53.0167 68.8243 53.1528 69.0131 53.3083H56.098C56.1736 53.3472 56.2491 53.3861 56.3246 53.425C56.4001 53.4639 56.4568 53.5222 56.4946 53.6H61.9325C62.0458 53.6778 62.159 53.775 62.2723 53.8917C62.3856 54.0083 62.48 54.1056 62.5556 54.1833H61.7059C62.0835 54.5333 62.4045 54.9222 62.6688 55.35H59.7233C59.7988 55.4278 59.8744 55.525 59.9499 55.6417C60.0254 55.7583 60.0821 55.8556 60.1198 55.9333H71.3355L71.8453 56.8083H61.3094C61.3849 56.9639 61.4604 57.1194 61.5359 57.275C61.6115 57.3917 61.6681 57.5278 61.7059 57.6833H66.5773L66.7473 58.2667H67.5403L67.7102 58.85H68.7299C68.8054 59.0056 68.8431 59.2 68.8431 59.4333C68.8809 59.6278 68.9187 59.8222 68.9564 60.0167L69.0131 60.6H69.3529C69.3907 60.6778 69.4096 60.775 69.4096 60.8917C69.4096 61.0083 69.4096 61.1056 69.4096 61.1833H69.5795V62.0583H70.0893V62.2333C70.0893 62.3889 70.0704 62.5444 70.0327 62.7C70.0327 62.8556 70.0327 63.0306 70.0327 63.225H69.4662V63.5167H69.5795C69.5795 63.6722 69.5606 63.8278 69.5229 63.9833C69.5229 64.1 69.504 64.2361 69.4662 64.3917H69.6362L69.4662 65.2667H69.9194C69.8816 65.4222 69.8439 65.5778 69.8061 65.7333C69.7683 65.85 69.7117 65.9861 69.6362 66.1417H69.0131C69.0131 66.1806 68.9942 66.2194 68.9564 66.2583C68.9564 66.2972 68.9564 66.3556 68.9564 66.4333H70.3159L69.976 67.3083H66.1808C66.1431 67.4639 66.0675 67.6194 65.9542 67.775C65.8787 67.8917 65.8032 68.0278 65.7277 68.1833H73.7146L73.5447 68.475H77C76.9245 68.6306 76.8301 68.7861 76.7168 68.9417C76.6413 69.0583 76.5468 69.1944 76.4336 69.35H69.3529C69.3152 69.3889 69.2774 69.4278 69.2397 69.4667C69.2019 69.5056 69.1641 69.5639 69.1264 69.6417ZM54.3987 45.4333H56.098C55.9847 45.3944 55.8526 45.375 55.7015 45.375C55.5882 45.375 55.4561 45.375 55.305 45.375C55.154 45.375 55.0029 45.375 54.8519 45.375C54.7008 45.375 54.5497 45.3944 54.3987 45.4333Z" fill="#D6151C"/>
<path d="M67.1264 67.6417H64.8039L64.2941 68.225H72.9608C72.923 68.2639 72.8853 68.3028 72.8475 68.3417C72.8097 68.3806 72.7531 68.4389 72.6776 68.5167H59.3094C59.1206 68.7111 58.9129 68.9056 58.6863 69.1C58.4975 69.2944 58.2898 69.4889 58.0632 69.6833H62.1983L61.4619 70.2667H69.1656L68.7124 70.5583H65.3704C65.3326 70.5972 65.2571 70.6361 65.1438 70.675C65.0683 70.7139 64.9927 70.7722 64.9172 70.85H61.122L59.5359 71.725H61.7451C61.2542 71.9583 60.7633 72.1722 60.2723 72.3667C59.7814 72.5222 59.2716 72.6972 58.7429 72.8917H56.7037C55.4198 73.2806 54.0225 73.5722 52.512 73.7667H52.7952C52.191 73.8444 51.5679 73.9028 50.9259 73.9417C50.284 73.9806 49.642 74 49 74C48.2825 74 47.565 73.9806 46.8475 73.9417C46.1678 73.9028 45.5069 73.8444 44.8649 73.7667H44.6383C43.0145 73.5722 41.5606 73.2806 40.2767 72.8917H42.3159C41.7495 72.6972 41.2208 72.5222 40.7298 72.3667C40.2389 72.1722 39.748 71.9583 39.2571 71.725H37.0479C36.7836 71.5694 36.5192 71.4333 36.2549 71.3167C35.9906 71.1611 35.7262 71.0056 35.4619 70.85H39.3137L38.8606 70.5583H42.2026C42.1649 70.4806 42.1082 70.4222 42.0327 70.3833C41.9572 70.3444 41.8816 70.3056 41.8061 70.2667H34.1024C33.9513 70.1889 33.8192 70.0917 33.7059 69.975C33.5926 69.8583 33.4793 69.7611 33.366 69.6833H29.1743C28.9855 69.4889 28.7967 69.2944 28.6078 69.1C28.3813 68.9056 28.1736 68.7111 27.9847 68.5167H41.3529C41.3152 68.4389 41.2774 68.3806 41.2397 68.3417C41.2019 68.3028 41.1641 68.2639 41.1264 68.225H32.4597C32.3086 68.0694 32.1576 67.875 32.0065 67.6417H34.329C34.2912 67.5639 34.2535 67.5056 34.2157 67.4667C34.1779 67.4278 34.1402 67.3889 34.1024 67.35H41.183L40.6732 66.475H37.1612L36.9913 66.1833H29.0044C28.9666 66.0278 28.9099 65.8917 28.8344 65.775C28.7589 65.6194 28.6834 65.4639 28.6078 65.3083H32.4031L32.0632 64.4333H30.7037L30.5904 64.1417H31.2135C31.1757 63.9861 31.138 63.85 31.1002 63.7333C31.0625 63.5778 31.0247 63.4222 30.9869 63.2667H30.5338C30.5338 63.1111 30.5149 62.975 30.4771 62.8583C30.4771 62.7028 30.4582 62.5472 30.4205 62.3917H29.9673C29.9673 62.2361 29.9484 62.1 29.9107 61.9833C29.9107 61.8667 29.9107 61.7306 29.9107 61.575V61.5167H29.854C29.854 61.4389 29.854 61.3806 29.854 61.3417C29.8918 61.3028 29.9107 61.2639 29.9107 61.225H31.2135C31.4023 60.6028 31.7988 60.2917 32.4031 60.2917H43.1656C43.7698 60.2917 44.223 60.3694 44.5251 60.525C44.8272 60.6806 45.167 60.9139 45.5447 61.225H44.2418L44.2985 61.2833C44.374 61.3222 44.4306 61.3611 44.4684 61.4C44.5439 61.4389 44.6006 61.4778 44.6383 61.5167H44.695C45.1859 61.9056 45.7901 62.1972 46.5076 62.3917H47.0174C47.5084 62.5472 48.1692 62.625 49 62.625C49.4909 62.625 49.9441 62.6056 50.3595 62.5667C50.7749 62.5278 51.1336 62.4694 51.4357 62.3917H51.2658C52.1344 62.1972 52.6819 61.9056 52.9085 61.5167H52.7952C52.8707 61.3611 52.9085 61.2639 52.9085 61.225H53.4749L53.5316 60.9917C53.5316 60.6417 53.3994 60.3306 53.1351 60.0583H52.6819C52.342 59.7083 51.7378 59.4167 50.8693 59.1833H50.6994C50.3595 59.0667 49.963 58.9694 49.5098 58.8917C49.0566 58.775 48.528 58.6778 47.9237 58.6H47.5839L45.2614 58.25C44.9971 58.2111 44.7328 58.1722 44.4684 58.1333C44.2418 58.0944 43.9964 58.0556 43.732 58.0167C42.1837 57.7444 40.6921 57.3556 39.2571 56.85H38.2375C37.7088 56.6556 37.2179 56.4611 36.7647 56.2667H35.9717C35.7829 56.1889 35.594 56.1111 35.4052 56.0333C35.2164 55.9167 35.0276 55.8 34.8388 55.6833H29.9107C29.6463 55.5278 29.4009 55.3917 29.1743 55.275C28.9477 55.1194 28.7211 54.9639 28.4946 54.8083H39.0305C38.8417 54.6528 38.6529 54.5167 38.4641 54.4C38.313 54.2444 38.1431 54.0889 37.9542 53.9333H26.6819C26.5686 53.8556 26.4742 53.7583 26.3987 53.6417C26.2854 53.525 26.191 53.4278 26.1155 53.35H29.061C28.7211 52.9611 28.4001 52.5722 28.098 52.1833H28.9477L28.6078 51.6H23.1699C23.1322 51.5222 23.0944 51.4639 23.0566 51.425C23.0189 51.3861 23 51.3472 23 51.3083H35.915C35.8395 51.1528 35.764 51.0167 35.6885 50.9C35.6129 50.7444 35.5374 50.5889 35.4619 50.4333H25.549L25.2092 49.5583H33.1961L33.0828 49.2667H30.7037L30.5904 48.975H31.7233C31.7233 48.8972 31.7044 48.8389 31.6667 48.8C31.6667 48.7611 31.6667 48.7222 31.6667 48.6833H31.4401L31.2702 48.1H30.9303L30.8736 47.5167H30.7603V47.225H28.9477C28.9099 47.1472 28.8911 47.05 28.8911 46.9333C28.8911 46.8167 28.8911 46.7194 28.8911 46.6417H27.2484L27.1917 46.0583H33.6492C33.6115 45.9806 33.5926 45.8833 33.5926 45.7667C33.5926 45.65 33.5926 45.5528 33.5926 45.475H34.4989V45.4167C34.4989 45.2222 34.4989 45.0278 34.4989 44.8333C34.4989 44.6389 34.5178 44.4639 34.5556 44.3083H32.1198C32.1576 44.1528 32.1765 44.0167 32.1765 43.9C32.1765 43.7444 32.1954 43.5889 32.2331 43.4333H36.1983C36.1983 43.3556 36.1983 43.2972 36.1983 43.2583C36.236 43.2194 36.2549 43.1806 36.2549 43.1417H32.2331C32.3086 42.9083 32.3464 42.7139 32.3464 42.5583H31.7233L31.8932 41.975H30.9303C31.0436 41.5472 31.1757 41.1583 31.3268 40.8083H31.78L32.0065 40.225H32.6296L33.1394 39.35H32.573C32.6863 39.1944 32.7807 39.0583 32.8562 38.9417C32.9695 38.7861 33.0639 38.6306 33.1394 38.475H32.6863L33.366 37.6H34.5556C34.5933 37.5222 34.6311 37.4639 34.6688 37.425C34.7066 37.3861 34.7444 37.3472 34.7821 37.3083H33.1961C33.3471 37.1528 33.4982 37.0167 33.6492 36.9C33.8003 36.7444 33.9513 36.5889 34.1024 36.4333H35.0087C35.2353 36.2389 35.4619 36.0444 35.6885 35.85C35.915 35.6167 36.1605 35.4222 36.4248 35.2667H37.4444C37.671 35.1111 37.8976 34.975 38.1242 34.8583C38.3508 34.7028 38.5962 34.5472 38.8606 34.3917H38.6906C38.7662 34.3139 38.8606 34.2556 38.9739 34.2167C39.0871 34.1778 39.1816 34.1389 39.2571 34.1H38.4641C38.5396 34.0222 38.634 33.9639 38.7473 33.925C38.8606 33.8861 38.9739 33.8472 39.0871 33.8083H38.5207C39.0494 33.575 39.597 33.3611 40.1634 33.1667C40.7676 32.9722 41.3718 32.7972 41.976 32.6417H42.8257C43.6943 32.4472 44.6006 32.2917 45.5447 32.175C46.5265 32.0583 47.5461 32 48.6035 32C50.6049 32 52.4931 32.2139 54.268 32.6417H53.4749C54.6834 32.9139 55.854 33.3028 56.9869 33.8083H57.4967C57.61 33.8472 57.7233 33.8861 57.8366 33.925C57.9499 33.9639 58.0632 34.0222 58.1765 34.1H58.9695C59.045 34.1389 59.1394 34.1778 59.2527 34.2167C59.366 34.2556 59.4604 34.3139 59.5359 34.3917H59.7059C59.9702 34.5472 60.2157 34.7028 60.4423 34.8583C60.7066 34.975 60.9521 35.1111 61.1786 35.2667H60.2157C60.5178 35.4222 60.7821 35.6167 61.0087 35.85C61.2731 36.0444 61.5185 36.2389 61.7451 36.4333H60.8954L61.8017 37.3083H63.3878L63.671 37.6H62.4815C62.6325 37.7556 62.7647 37.9111 62.878 38.0667C63.029 38.1833 63.1612 38.3194 63.2745 38.475H63.7277L64.4074 39.35H64.9172L65.427 40.225H64.8039C64.9172 40.4194 65.0116 40.6139 65.0871 40.8083H64.634C64.7473 41.0028 64.8417 41.1972 64.9172 41.3917C64.9927 41.5861 65.0683 41.7806 65.1438 41.975H66.1068C66.1823 42.2083 66.22 42.4028 66.22 42.5583H66.8998C66.9375 42.6361 66.9564 42.7333 66.9564 42.85C66.9564 42.9667 66.9753 43.0639 67.0131 43.1417H71.0349V43.4333H67.4096C67.4474 43.5889 67.4662 43.8028 67.4662 44.075V44.3083H65.3704C65.2193 45.0083 64.8417 45.3583 64.2375 45.3583H52.9085C52.3798 45.3583 51.9455 45.2806 51.6057 45.125C51.3036 44.9694 50.9826 44.7361 50.6427 44.425L50.4728 44.3083H52.5686C52.3798 44.1528 52.1155 43.9972 51.7756 43.8417C51.4357 43.6472 51.0015 43.5111 50.4728 43.4333H48.4336C47.6405 43.55 47.093 43.8417 46.7909 44.3083H49.2266C49.1133 44.5417 49.0566 44.775 49.0566 45.0083C49.0566 45.2028 49.0755 45.3583 49.1133 45.475H48.2636C48.3014 45.6694 48.4524 45.8639 48.7168 46.0583H42.3159C42.5425 46.2528 42.939 46.4472 43.5054 46.6417H45.1481C45.4503 46.7583 45.809 46.875 46.2244 46.9917C46.6776 47.0694 47.1496 47.1472 47.6405 47.225H49.4532C49.7553 47.2639 50.0763 47.3028 50.4161 47.3417C50.756 47.3806 51.1147 47.4389 51.4924 47.5167H51.549C52.191 47.5944 52.8141 47.6917 53.4183 47.8083C54.0225 47.8861 54.589 47.9833 55.1176 48.1H55.4575C55.9107 48.1778 56.3261 48.275 56.7037 48.3917C57.1191 48.4694 57.5156 48.5667 57.8932 48.6833H58.1198C58.3086 48.7222 58.4786 48.7611 58.6296 48.8C58.7807 48.8389 58.9317 48.8972 59.0828 48.975H58.0065C58.1576 49.0139 58.2898 49.0528 58.403 49.0917C58.5541 49.1306 58.7052 49.1889 58.8562 49.2667H61.2353C61.3486 49.3056 61.4619 49.3444 61.5752 49.3833C61.7262 49.4222 61.8584 49.4806 61.9717 49.5583H53.9847C54.74 49.8694 55.3442 50.1611 55.7974 50.4333H65.7102C65.9368 50.5889 66.1634 50.7444 66.39 50.9C66.6166 51.0167 66.8243 51.1528 67.0131 51.3083H54.098C54.1736 51.3472 54.2491 51.3861 54.3246 51.425C54.4001 51.4639 54.4568 51.5222 54.4946 51.6H59.9325C60.0458 51.6778 60.159 51.775 60.2723 51.8917C60.3856 52.0083 60.48 52.1056 60.5556 52.1833H59.7059C60.0835 52.5333 60.4045 52.9222 60.6688 53.35H57.7233C57.7988 53.4278 57.8744 53.525 57.9499 53.6417C58.0254 53.7583 58.0821 53.8556 58.1198 53.9333H69.3355L69.8453 54.8083H59.3094C59.3849 54.9639 59.4604 55.1194 59.5359 55.275C59.6115 55.3917 59.6681 55.5278 59.7059 55.6833H64.5773L64.7473 56.2667H65.5403L65.7102 56.85H66.7299C66.8054 57.0056 66.8431 57.2 66.8431 57.4333C66.8809 57.6278 66.9187 57.8222 66.9564 58.0167L67.0131 58.6H67.3529C67.3907 58.6778 67.4096 58.775 67.4096 58.8917C67.4096 59.0083 67.4096 59.1056 67.4096 59.1833H67.5795V60.0583H68.0893V60.2333C68.0893 60.3889 68.0704 60.5444 68.0327 60.7C68.0327 60.8556 68.0327 61.0306 68.0327 61.225H67.4662V61.5167H67.5795C67.5795 61.6722 67.5606 61.8278 67.5229 61.9833C67.5229 62.1 67.504 62.2361 67.4662 62.3917H67.6362L67.4662 63.2667H67.9194C67.8816 63.4222 67.8439 63.5778 67.8061 63.7333C67.7683 63.85 67.7117 63.9861 67.6362 64.1417H67.0131C67.0131 64.1806 66.9942 64.2194 66.9564 64.2583C66.9564 64.2972 66.9564 64.3556 66.9564 64.4333H68.3159L67.976 65.3083H64.1808C64.1431 65.4639 64.0675 65.6194 63.9542 65.775C63.8787 65.8917 63.8032 66.0278 63.7277 66.1833H71.7146L71.5447 66.475H75C74.9245 66.6306 74.8301 66.7861 74.7168 66.9417C74.6413 67.0583 74.5468 67.1944 74.4336 67.35H67.3529C67.3152 67.3889 67.2774 67.4278 67.2397 67.4667C67.2019 67.5056 67.1641 67.5639 67.1264 67.6417ZM52.3987 43.4333H54.098C53.9847 43.3944 53.8526 43.375 53.7015 43.375C53.5882 43.375 53.4561 43.375 53.305 43.375C53.154 43.375 53.0029 43.375 52.8519 43.375C52.7008 43.375 52.5497 43.3944 52.3987 43.4333Z" fill="#228F96"/>
<path d="M68.1264 68.6417H65.8039L65.2941 69.225H73.9608C73.923 69.2639 73.8853 69.3028 73.8475 69.3417C73.8097 69.3806 73.7531 69.4389 73.6776 69.5167H60.3094C60.1206 69.7111 59.9129 69.9056 59.6863 70.1C59.4975 70.2944 59.2898 70.4889 59.0632 70.6833H63.1983L62.4619 71.2667H70.1656L69.7124 71.5583H66.3704C66.3326 71.5972 66.2571 71.6361 66.1438 71.675C66.0683 71.7139 65.9927 71.7722 65.9172 71.85H62.122L60.5359 72.725H62.7451C62.2542 72.9583 61.7633 73.1722 61.2723 73.3667C60.7814 73.5222 60.2716 73.6972 59.7429 73.8917H57.7037C56.4198 74.2806 55.0225 74.5722 53.512 74.7667H53.7952C53.191 74.8444 52.5679 74.9028 51.9259 74.9417C51.284 74.9806 50.642 75 50 75C49.2825 75 48.565 74.9806 47.8475 74.9417C47.1678 74.9028 46.5069 74.8444 45.8649 74.7667H45.6383C44.0145 74.5722 42.5606 74.2806 41.2767 73.8917H43.3159C42.7495 73.6972 42.2208 73.5222 41.7298 73.3667C41.2389 73.1722 40.748 72.9583 40.2571 72.725H38.0479C37.7836 72.5694 37.5192 72.4333 37.2549 72.3167C36.9906 72.1611 36.7262 72.0056 36.4619 71.85H40.3137L39.8606 71.5583H43.2026C43.1649 71.4806 43.1082 71.4222 43.0327 71.3833C42.9572 71.3444 42.8816 71.3056 42.8061 71.2667H35.1024C34.9513 71.1889 34.8192 71.0917 34.7059 70.975C34.5926 70.8583 34.4793 70.7611 34.366 70.6833H30.1743C29.9855 70.4889 29.7967 70.2944 29.6078 70.1C29.3813 69.9056 29.1736 69.7111 28.9847 69.5167H42.3529C42.3152 69.4389 42.2774 69.3806 42.2397 69.3417C42.2019 69.3028 42.1641 69.2639 42.1264 69.225H33.4597C33.3086 69.0694 33.1576 68.875 33.0065 68.6417H35.329C35.2912 68.5639 35.2535 68.5056 35.2157 68.4667C35.1779 68.4278 35.1402 68.3889 35.1024 68.35H42.183L41.6732 67.475H38.1612L37.9913 67.1833H30.0044C29.9666 67.0278 29.9099 66.8917 29.8344 66.775C29.7589 66.6194 29.6834 66.4639 29.6078 66.3083H33.4031L33.0632 65.4333H31.7037L31.5904 65.1417H32.2135C32.1757 64.9861 32.138 64.85 32.1002 64.7333C32.0625 64.5778 32.0247 64.4222 31.9869 64.2667H31.5338C31.5338 64.1111 31.5149 63.975 31.4771 63.8583C31.4771 63.7028 31.4582 63.5472 31.4205 63.3917H30.9673C30.9673 63.2361 30.9484 63.1 30.9107 62.9833C30.9107 62.8667 30.9107 62.7306 30.9107 62.575V62.5167H30.854C30.854 62.4389 30.854 62.3806 30.854 62.3417C30.8918 62.3028 30.9107 62.2639 30.9107 62.225H32.2135C32.4023 61.6028 32.7988 61.2917 33.4031 61.2917H44.1656C44.7698 61.2917 45.223 61.3694 45.5251 61.525C45.8272 61.6806 46.167 61.9139 46.5447 62.225H45.2418L45.2985 62.2833C45.374 62.3222 45.4306 62.3611 45.4684 62.4C45.5439 62.4389 45.6006 62.4778 45.6383 62.5167H45.695C46.1859 62.9056 46.7901 63.1972 47.5076 63.3917H48.0174C48.5084 63.5472 49.1692 63.625 50 63.625C50.4909 63.625 50.9441 63.6056 51.3595 63.5667C51.7749 63.5278 52.1336 63.4694 52.4357 63.3917H52.2658C53.1344 63.1972 53.6819 62.9056 53.9085 62.5167H53.7952C53.8707 62.3611 53.9085 62.2639 53.9085 62.225H54.4749L54.5316 61.9917C54.5316 61.6417 54.3994 61.3306 54.1351 61.0583H53.6819C53.342 60.7083 52.7378 60.4167 51.8693 60.1833H51.6994C51.3595 60.0667 50.963 59.9694 50.5098 59.8917C50.0566 59.775 49.528 59.6778 48.9237 59.6H48.5839L46.2614 59.25C45.9971 59.2111 45.7328 59.1722 45.4684 59.1333C45.2418 59.0944 44.9964 59.0556 44.732 59.0167C43.1837 58.7444 41.6921 58.3556 40.2571 57.85H39.2375C38.7088 57.6556 38.2179 57.4611 37.7647 57.2667H36.9717C36.7829 57.1889 36.594 57.1111 36.4052 57.0333C36.2164 56.9167 36.0276 56.8 35.8388 56.6833H30.9107C30.6463 56.5278 30.4009 56.3917 30.1743 56.275C29.9477 56.1194 29.7211 55.9639 29.4946 55.8083H40.0305C39.8417 55.6528 39.6529 55.5167 39.4641 55.4C39.313 55.2444 39.1431 55.0889 38.9542 54.9333H27.6819C27.5686 54.8556 27.4742 54.7583 27.3987 54.6417C27.2854 54.525 27.191 54.4278 27.1155 54.35H30.061C29.7211 53.9611 29.4001 53.5722 29.098 53.1833H29.9477L29.6078 52.6H24.1699C24.1322 52.5222 24.0944 52.4639 24.0566 52.425C24.0189 52.3861 24 52.3472 24 52.3083H36.915C36.8395 52.1528 36.764 52.0167 36.6885 51.9C36.6129 51.7444 36.5374 51.5889 36.4619 51.4333H26.549L26.2092 50.5583H34.1961L34.0828 50.2667H31.7037L31.5904 49.975H32.7233C32.7233 49.8972 32.7044 49.8389 32.6667 49.8C32.6667 49.7611 32.6667 49.7222 32.6667 49.6833H32.4401L32.2702 49.1H31.9303L31.8736 48.5167H31.7603V48.225H29.9477C29.9099 48.1472 29.8911 48.05 29.8911 47.9333C29.8911 47.8167 29.8911 47.7194 29.8911 47.6417H28.2484L28.1917 47.0583H34.6492C34.6115 46.9806 34.5926 46.8833 34.5926 46.7667C34.5926 46.65 34.5926 46.5528 34.5926 46.475H35.4989V46.4167C35.4989 46.2222 35.4989 46.0278 35.4989 45.8333C35.4989 45.6389 35.5178 45.4639 35.5556 45.3083H33.1198C33.1576 45.1528 33.1765 45.0167 33.1765 44.9C33.1765 44.7444 33.1954 44.5889 33.2331 44.4333H37.1983C37.1983 44.3556 37.1983 44.2972 37.1983 44.2583C37.236 44.2194 37.2549 44.1806 37.2549 44.1417H33.2331C33.3086 43.9083 33.3464 43.7139 33.3464 43.5583H32.7233L32.8932 42.975H31.9303C32.0436 42.5472 32.1757 42.1583 32.3268 41.8083H32.78L33.0065 41.225H33.6296L34.1394 40.35H33.573C33.6863 40.1944 33.7807 40.0583 33.8562 39.9417C33.9695 39.7861 34.0639 39.6306 34.1394 39.475H33.6863L34.366 38.6H35.5556C35.5933 38.5222 35.6311 38.4639 35.6688 38.425C35.7066 38.3861 35.7444 38.3472 35.7821 38.3083H34.1961C34.3471 38.1528 34.4982 38.0167 34.6492 37.9C34.8003 37.7444 34.9513 37.5889 35.1024 37.4333H36.0087C36.2353 37.2389 36.4619 37.0444 36.6885 36.85C36.915 36.6167 37.1605 36.4222 37.4248 36.2667H38.4444C38.671 36.1111 38.8976 35.975 39.1242 35.8583C39.3508 35.7028 39.5962 35.5472 39.8606 35.3917H39.6906C39.7662 35.3139 39.8606 35.2556 39.9739 35.2167C40.0871 35.1778 40.1816 35.1389 40.2571 35.1H39.4641C39.5396 35.0222 39.634 34.9639 39.7473 34.925C39.8606 34.8861 39.9739 34.8472 40.0871 34.8083H39.5207C40.0494 34.575 40.597 34.3611 41.1634 34.1667C41.7676 33.9722 42.3718 33.7972 42.976 33.6417H43.8257C44.6943 33.4472 45.6006 33.2917 46.5447 33.175C47.5265 33.0583 48.5461 33 49.6035 33C51.6049 33 53.4931 33.2139 55.268 33.6417H54.4749C55.6834 33.9139 56.854 34.3028 57.9869 34.8083H58.4967C58.61 34.8472 58.7233 34.8861 58.8366 34.925C58.9499 34.9639 59.0632 35.0222 59.1765 35.1H59.9695C60.045 35.1389 60.1394 35.1778 60.2527 35.2167C60.366 35.2556 60.4604 35.3139 60.5359 35.3917H60.7059C60.9702 35.5472 61.2157 35.7028 61.4423 35.8583C61.7066 35.975 61.9521 36.1111 62.1786 36.2667H61.2157C61.5178 36.4222 61.7821 36.6167 62.0087 36.85C62.2731 37.0444 62.5185 37.2389 62.7451 37.4333H61.8954L62.8017 38.3083H64.3878L64.671 38.6H63.4815C63.6325 38.7556 63.7647 38.9111 63.878 39.0667C64.029 39.1833 64.1612 39.3194 64.2745 39.475H64.7277L65.4074 40.35H65.9172L66.427 41.225H65.8039C65.9172 41.4194 66.0116 41.6139 66.0871 41.8083H65.634C65.7473 42.0028 65.8417 42.1972 65.9172 42.3917C65.9927 42.5861 66.0683 42.7806 66.1438 42.975H67.1068C67.1823 43.2083 67.22 43.4028 67.22 43.5583H67.8998C67.9375 43.6361 67.9564 43.7333 67.9564 43.85C67.9564 43.9667 67.9753 44.0639 68.0131 44.1417H72.0349V44.4333H68.4096C68.4474 44.5889 68.4662 44.8028 68.4662 45.075V45.3083H66.3704C66.2193 46.0083 65.8417 46.3583 65.2375 46.3583H53.9085C53.3798 46.3583 52.9455 46.2806 52.6057 46.125C52.3036 45.9694 51.9826 45.7361 51.6427 45.425L51.4728 45.3083H53.5686C53.3798 45.1528 53.1155 44.9972 52.7756 44.8417C52.4357 44.6472 52.0015 44.5111 51.4728 44.4333H49.4336C48.6405 44.55 48.093 44.8417 47.7909 45.3083H50.2266C50.1133 45.5417 50.0566 45.775 50.0566 46.0083C50.0566 46.2028 50.0755 46.3583 50.1133 46.475H49.2636C49.3014 46.6694 49.4524 46.8639 49.7168 47.0583H43.3159C43.5425 47.2528 43.939 47.4472 44.5054 47.6417H46.1481C46.4503 47.7583 46.809 47.875 47.2244 47.9917C47.6776 48.0694 48.1496 48.1472 48.6405 48.225H50.4532C50.7553 48.2639 51.0763 48.3028 51.4161 48.3417C51.756 48.3806 52.1147 48.4389 52.4924 48.5167H52.549C53.191 48.5944 53.8141 48.6917 54.4183 48.8083C55.0225 48.8861 55.589 48.9833 56.1176 49.1H56.4575C56.9107 49.1778 57.3261 49.275 57.7037 49.3917C58.1191 49.4694 58.5156 49.5667 58.8932 49.6833H59.1198C59.3086 49.7222 59.4786 49.7611 59.6296 49.8C59.7807 49.8389 59.9317 49.8972 60.0828 49.975H59.0065C59.1576 50.0139 59.2898 50.0528 59.403 50.0917C59.5541 50.1306 59.7052 50.1889 59.8562 50.2667H62.2353C62.3486 50.3056 62.4619 50.3444 62.5752 50.3833C62.7262 50.4222 62.8584 50.4806 62.9717 50.5583H54.9847C55.74 50.8694 56.3442 51.1611 56.7974 51.4333H66.7102C66.9368 51.5889 67.1634 51.7444 67.39 51.9C67.6166 52.0167 67.8243 52.1528 68.0131 52.3083H55.098C55.1736 52.3472 55.2491 52.3861 55.3246 52.425C55.4001 52.4639 55.4568 52.5222 55.4946 52.6H60.9325C61.0458 52.6778 61.159 52.775 61.2723 52.8917C61.3856 53.0083 61.48 53.1056 61.5556 53.1833H60.7059C61.0835 53.5333 61.4045 53.9222 61.6688 54.35H58.7233C58.7988 54.4278 58.8744 54.525 58.9499 54.6417C59.0254 54.7583 59.0821 54.8556 59.1198 54.9333H70.3355L70.8453 55.8083H60.3094C60.3849 55.9639 60.4604 56.1194 60.5359 56.275C60.6115 56.3917 60.6681 56.5278 60.7059 56.6833H65.5773L65.7473 57.2667H66.5403L66.7102 57.85H67.7299C67.8054 58.0056 67.8431 58.2 67.8431 58.4333C67.8809 58.6278 67.9187 58.8222 67.9564 59.0167L68.0131 59.6H68.3529C68.3907 59.6778 68.4096 59.775 68.4096 59.8917C68.4096 60.0083 68.4096 60.1056 68.4096 60.1833H68.5795V61.0583H69.0893V61.2333C69.0893 61.3889 69.0704 61.5444 69.0327 61.7C69.0327 61.8556 69.0327 62.0306 69.0327 62.225H68.4662V62.5167H68.5795C68.5795 62.6722 68.5606 62.8278 68.5229 62.9833C68.5229 63.1 68.504 63.2361 68.4662 63.3917H68.6362L68.4662 64.2667H68.9194C68.8816 64.4222 68.8439 64.5778 68.8061 64.7333C68.7683 64.85 68.7117 64.9861 68.6362 65.1417H68.0131C68.0131 65.1806 67.9942 65.2194 67.9564 65.2583C67.9564 65.2972 67.9564 65.3556 67.9564 65.4333H69.3159L68.976 66.3083H65.1808C65.1431 66.4639 65.0675 66.6194 64.9542 66.775C64.8787 66.8917 64.8032 67.0278 64.7277 67.1833H72.7146L72.5447 67.475H76C75.9245 67.6306 75.8301 67.7861 75.7168 67.9417C75.6413 68.0583 75.5468 68.1944 75.4336 68.35H68.3529C68.3152 68.3889 68.2774 68.4278 68.2397 68.4667C68.2019 68.5056 68.1641 68.5639 68.1264 68.6417ZM53.3987 44.4333H55.098C54.9847 44.3944 54.8526 44.375 54.7015 44.375C54.5882 44.375 54.4561 44.375 54.305 44.375C54.154 44.375 54.0029 44.375 53.8519 44.375C53.7008 44.375 53.5497 44.3944 53.3987 44.4333Z" fill="#FFF6E4"/>
<path d="M69.1264 69.6417H66.8039L66.2941 70.225H74.9608C74.923 70.2639 74.8853 70.3028 74.8475 70.3417C74.8097 70.3806 74.7531 70.4389 74.6776 70.5167H61.3094C61.1206 70.7111 60.9129 70.9056 60.6863 71.1C60.4975 71.2944 60.2898 71.4889 60.0632 71.6833H64.1983L63.4619 72.2667H71.1656L70.7124 72.5583H67.3704C67.3326 72.5972 67.2571 72.6361 67.1438 72.675C67.0683 72.7139 66.9927 72.7722 66.9172 72.85H63.122L61.5359 73.725H63.7451C63.2542 73.9583 62.7633 74.1722 62.2723 74.3667C61.7814 74.5222 61.2716 74.6972 60.7429 74.8917H58.7037C57.4198 75.2806 56.0225 75.5722 54.512 75.7667H54.7952C54.191 75.8444 53.5679 75.9028 52.9259 75.9417C52.284 75.9806 51.642 76 51 76C50.2825 76 49.565 75.9806 48.8475 75.9417C48.1678 75.9028 47.5069 75.8444 46.8649 75.7667H46.6383C45.0145 75.5722 43.5606 75.2806 42.2767 74.8917H44.3159C43.7495 74.6972 43.2208 74.5222 42.7298 74.3667C42.2389 74.1722 41.748 73.9583 41.2571 73.725H39.0479C38.7836 73.5694 38.5192 73.4333 38.2549 73.3167C37.9906 73.1611 37.7262 73.0056 37.4619 72.85H41.3137L40.8606 72.5583H44.2026C44.1649 72.4806 44.1082 72.4222 44.0327 72.3833C43.9572 72.3444 43.8816 72.3056 43.8061 72.2667H36.1024C35.9513 72.1889 35.8192 72.0917 35.7059 71.975C35.5926 71.8583 35.4793 71.7611 35.366 71.6833H31.1743C30.9855 71.4889 30.7967 71.2944 30.6078 71.1C30.3813 70.9056 30.1736 70.7111 29.9847 70.5167H43.3529C43.3152 70.4389 43.2774 70.3806 43.2397 70.3417C43.2019 70.3028 43.1641 70.2639 43.1264 70.225H34.4597C34.3086 70.0694 34.1576 69.875 34.0065 69.6417H36.329C36.2912 69.5639 36.2535 69.5056 36.2157 69.4667C36.1779 69.4278 36.1402 69.3889 36.1024 69.35H43.183L42.6732 68.475H39.1612L38.9913 68.1833H31.0044C30.9666 68.0278 30.9099 67.8917 30.8344 67.775C30.7589 67.6194 30.6834 67.4639 30.6078 67.3083H34.4031L34.0632 66.4333H32.7037L32.5904 66.1417H33.2135C33.1757 65.9861 33.138 65.85 33.1002 65.7333C33.0625 65.5778 33.0247 65.4222 32.9869 65.2667H32.5338C32.5338 65.1111 32.5149 64.975 32.4771 64.8583C32.4771 64.7028 32.4582 64.5472 32.4205 64.3917H31.9673C31.9673 64.2361 31.9484 64.1 31.9107 63.9833C31.9107 63.8667 31.9107 63.7306 31.9107 63.575V63.5167H31.854C31.854 63.4389 31.854 63.3806 31.854 63.3417C31.8918 63.3028 31.9107 63.2639 31.9107 63.225H33.2135C33.4023 62.6028 33.7988 62.2917 34.4031 62.2917H45.1656C45.7698 62.2917 46.223 62.3694 46.5251 62.525C46.8272 62.6806 47.167 62.9139 47.5447 63.225H46.2418L46.2985 63.2833C46.374 63.3222 46.4306 63.3611 46.4684 63.4C46.5439 63.4389 46.6006 63.4778 46.6383 63.5167H46.695C47.1859 63.9056 47.7901 64.1972 48.5076 64.3917H49.0174C49.5084 64.5472 50.1692 64.625 51 64.625C51.4909 64.625 51.9441 64.6056 52.3595 64.5667C52.7749 64.5278 53.1336 64.4694 53.4357 64.3917H53.2658C54.1344 64.1972 54.6819 63.9056 54.9085 63.5167H54.7952C54.8707 63.3611 54.9085 63.2639 54.9085 63.225H55.4749L55.5316 62.9917C55.5316 62.6417 55.3994 62.3306 55.1351 62.0583H54.6819C54.342 61.7083 53.7378 61.4167 52.8693 61.1833H52.6994C52.3595 61.0667 51.963 60.9694 51.5098 60.8917C51.0566 60.775 50.528 60.6778 49.9237 60.6H49.5839L47.2614 60.25C46.9971 60.2111 46.7328 60.1722 46.4684 60.1333C46.2418 60.0944 45.9964 60.0556 45.732 60.0167C44.1837 59.7444 42.6921 59.3556 41.2571 58.85H40.2375C39.7088 58.6556 39.2179 58.4611 38.7647 58.2667H37.9717C37.7829 58.1889 37.594 58.1111 37.4052 58.0333C37.2164 57.9167 37.0276 57.8 36.8388 57.6833H31.9107C31.6463 57.5278 31.4009 57.3917 31.1743 57.275C30.9477 57.1194 30.7211 56.9639 30.4946 56.8083H41.0305C40.8417 56.6528 40.6529 56.5167 40.4641 56.4C40.313 56.2444 40.1431 56.0889 39.9542 55.9333H28.6819C28.5686 55.8556 28.4742 55.7583 28.3987 55.6417C28.2854 55.525 28.191 55.4278 28.1155 55.35H31.061C30.7211 54.9611 30.4001 54.5722 30.098 54.1833H30.9477L30.6078 53.6H25.1699C25.1322 53.5222 25.0944 53.4639 25.0566 53.425C25.0189 53.3861 25 53.3472 25 53.3083H37.915C37.8395 53.1528 37.764 53.0167 37.6885 52.9C37.6129 52.7444 37.5374 52.5889 37.4619 52.4333H27.549L27.2092 51.5583H35.1961L35.0828 51.2667H32.7037L32.5904 50.975H33.7233C33.7233 50.8972 33.7044 50.8389 33.6667 50.8C33.6667 50.7611 33.6667 50.7222 33.6667 50.6833H33.4401L33.2702 50.1H32.9303L32.8736 49.5167H32.7603V49.225H30.9477C30.9099 49.1472 30.8911 49.05 30.8911 48.9333C30.8911 48.8167 30.8911 48.7194 30.8911 48.6417H29.2484L29.1917 48.0583H35.6492C35.6115 47.9806 35.5926 47.8833 35.5926 47.7667C35.5926 47.65 35.5926 47.5528 35.5926 47.475H36.4989V47.4167C36.4989 47.2222 36.4989 47.0278 36.4989 46.8333C36.4989 46.6389 36.5178 46.4639 36.5556 46.3083H34.1198C34.1576 46.1528 34.1765 46.0167 34.1765 45.9C34.1765 45.7444 34.1954 45.5889 34.2331 45.4333H38.1983C38.1983 45.3556 38.1983 45.2972 38.1983 45.2583C38.236 45.2194 38.2549 45.1806 38.2549 45.1417H34.2331C34.3086 44.9083 34.3464 44.7139 34.3464 44.5583H33.7233L33.8932 43.975H32.9303C33.0436 43.5472 33.1757 43.1583 33.3268 42.8083H33.78L34.0065 42.225H34.6296L35.1394 41.35H34.573C34.6863 41.1944 34.7807 41.0583 34.8562 40.9417C34.9695 40.7861 35.0639 40.6306 35.1394 40.475H34.6863L35.366 39.6H36.5556C36.5933 39.5222 36.6311 39.4639 36.6688 39.425C36.7066 39.3861 36.7444 39.3472 36.7821 39.3083H35.1961C35.3471 39.1528 35.4982 39.0167 35.6492 38.9C35.8003 38.7444 35.9513 38.5889 36.1024 38.4333H37.0087C37.2353 38.2389 37.4619 38.0444 37.6885 37.85C37.915 37.6167 38.1605 37.4222 38.4248 37.2667H39.4444C39.671 37.1111 39.8976 36.975 40.1242 36.8583C40.3508 36.7028 40.5962 36.5472 40.8606 36.3917H40.6906C40.7662 36.3139 40.8606 36.2556 40.9739 36.2167C41.0871 36.1778 41.1816 36.1389 41.2571 36.1H40.4641C40.5396 36.0222 40.634 35.9639 40.7473 35.925C40.8606 35.8861 40.9739 35.8472 41.0871 35.8083H40.5207C41.0494 35.575 41.597 35.3611 42.1634 35.1667C42.7676 34.9722 43.3718 34.7972 43.976 34.6417H44.8257C45.6943 34.4472 46.6006 34.2917 47.5447 34.175C48.5265 34.0583 49.5461 34 50.6035 34C52.6049 34 54.4931 34.2139 56.268 34.6417H55.4749C56.6834 34.9139 57.854 35.3028 58.9869 35.8083H59.4967C59.61 35.8472 59.7233 35.8861 59.8366 35.925C59.9499 35.9639 60.0632 36.0222 60.1765 36.1H60.9695C61.045 36.1389 61.1394 36.1778 61.2527 36.2167C61.366 36.2556 61.4604 36.3139 61.5359 36.3917H61.7059C61.9702 36.5472 62.2157 36.7028 62.4423 36.8583C62.7066 36.975 62.9521 37.1111 63.1786 37.2667H62.2157C62.5178 37.4222 62.7821 37.6167 63.0087 37.85C63.2731 38.0444 63.5185 38.2389 63.7451 38.4333H62.8954L63.8017 39.3083H65.3878L65.671 39.6H64.4815C64.6325 39.7556 64.7647 39.9111 64.878 40.0667C65.029 40.1833 65.1612 40.3194 65.2745 40.475H65.7277L66.4074 41.35H66.9172L67.427 42.225H66.8039C66.9172 42.4194 67.0116 42.6139 67.0871 42.8083H66.634C66.7473 43.0028 66.8417 43.1972 66.9172 43.3917C66.9927 43.5861 67.0683 43.7806 67.1438 43.975H68.1068C68.1823 44.2083 68.22 44.4028 68.22 44.5583H68.8998C68.9375 44.6361 68.9564 44.7333 68.9564 44.85C68.9564 44.9667 68.9753 45.0639 69.0131 45.1417H73.0349V45.4333H69.4096C69.4474 45.5889 69.4662 45.8028 69.4662 46.075V46.3083H67.3704C67.2193 47.0083 66.8417 47.3583 66.2375 47.3583H54.9085C54.3798 47.3583 53.9455 47.2806 53.6057 47.125C53.3036 46.9694 52.9826 46.7361 52.6427 46.425L52.4728 46.3083H54.5686C54.3798 46.1528 54.1155 45.9972 53.7756 45.8417C53.4357 45.6472 53.0015 45.5111 52.4728 45.4333H50.4336C49.6405 45.55 49.093 45.8417 48.7909 46.3083H51.2266C51.1133 46.5417 51.0566 46.775 51.0566 47.0083C51.0566 47.2028 51.0755 47.3583 51.1133 47.475H50.2636C50.3014 47.6694 50.4524 47.8639 50.7168 48.0583H44.3159C44.5425 48.2528 44.939 48.4472 45.5054 48.6417H47.1481C47.4503 48.7583 47.809 48.875 48.2244 48.9917C48.6776 49.0694 49.1496 49.1472 49.6405 49.225H51.4532C51.7553 49.2639 52.0763 49.3028 52.4161 49.3417C52.756 49.3806 53.1147 49.4389 53.4924 49.5167H53.549C54.191 49.5944 54.8141 49.6917 55.4183 49.8083C56.0225 49.8861 56.589 49.9833 57.1176 50.1H57.4575C57.9107 50.1778 58.3261 50.275 58.7037 50.3917C59.1191 50.4694 59.5156 50.5667 59.8932 50.6833H60.1198C60.3086 50.7222 60.4786 50.7611 60.6296 50.8C60.7807 50.8389 60.9317 50.8972 61.0828 50.975H60.0065C60.1576 51.0139 60.2898 51.0528 60.403 51.0917C60.5541 51.1306 60.7052 51.1889 60.8562 51.2667H63.2353C63.3486 51.3056 63.4619 51.3444 63.5752 51.3833C63.7262 51.4222 63.8584 51.4806 63.9717 51.5583H55.9847C56.74 51.8694 57.3442 52.1611 57.7974 52.4333H67.7102C67.9368 52.5889 68.1634 52.7444 68.39 52.9C68.6166 53.0167 68.8243 53.1528 69.0131 53.3083H56.098C56.1736 53.3472 56.2491 53.3861 56.3246 53.425C56.4001 53.4639 56.4568 53.5222 56.4946 53.6H61.9325C62.0458 53.6778 62.159 53.775 62.2723 53.8917C62.3856 54.0083 62.48 54.1056 62.5556 54.1833H61.7059C62.0835 54.5333 62.4045 54.9222 62.6688 55.35H59.7233C59.7988 55.4278 59.8744 55.525 59.9499 55.6417C60.0254 55.7583 60.0821 55.8556 60.1198 55.9333H71.3355L71.8453 56.8083H61.3094C61.3849 56.9639 61.4604 57.1194 61.5359 57.275C61.6115 57.3917 61.6681 57.5278 61.7059 57.6833H66.5773L66.7473 58.2667H67.5403L67.7102 58.85H68.7299C68.8054 59.0056 68.8431 59.2 68.8431 59.4333C68.8809 59.6278 68.9187 59.8222 68.9564 60.0167L69.0131 60.6H69.3529C69.3907 60.6778 69.4096 60.775 69.4096 60.8917C69.4096 61.0083 69.4096 61.1056 69.4096 61.1833H69.5795V62.0583H70.0893V62.2333C70.0893 62.3889 70.0704 62.5444 70.0327 62.7C70.0327 62.8556 70.0327 63.0306 70.0327 63.225H69.4662V63.5167H69.5795C69.5795 63.6722 69.5606 63.8278 69.5229 63.9833C69.5229 64.1 69.504 64.2361 69.4662 64.3917H69.6362L69.4662 65.2667H69.9194C69.8816 65.4222 69.8439 65.5778 69.8061 65.7333C69.7683 65.85 69.7117 65.9861 69.6362 66.1417H69.0131C69.0131 66.1806 68.9942 66.2194 68.9564 66.2583C68.9564 66.2972 68.9564 66.3556 68.9564 66.4333H70.3159L69.976 67.3083H66.1808C66.1431 67.4639 66.0675 67.6194 65.9542 67.775C65.8787 67.8917 65.8032 68.0278 65.7277 68.1833H73.7146L73.5447 68.475H77C76.9245 68.6306 76.8301 68.7861 76.7168 68.9417C76.6413 69.0583 76.5468 69.1944 76.4336 69.35H69.3529C69.3152 69.3889 69.2774 69.4278 69.2397 69.4667C69.2019 69.5056 69.1641 69.5639 69.1264 69.6417ZM54.3987 45.4333H56.098C55.9847 45.3944 55.8526 45.375 55.7015 45.375C55.5882 45.375 55.4561 45.375 55.305 45.375C55.154 45.375 55.0029 45.375 54.8519 45.375C54.7008 45.375 54.5497 45.3944 54.3987 45.4333Z" fill="#D6151C"/>
<path d="M67.1264 67.6417H64.8039L64.2941 68.225H72.9608C72.923 68.2639 72.8853 68.3028 72.8475 68.3417C72.8097 68.3806 72.7531 68.4389 72.6776 68.5167H59.3094C59.1206 68.7111 58.9129 68.9056 58.6863 69.1C58.4975 69.2944 58.2898 69.4889 58.0632 69.6833H62.1983L61.4619 70.2667H69.1656L68.7124 70.5583H65.3704C65.3326 70.5972 65.2571 70.6361 65.1438 70.675C65.0683 70.7139 64.9927 70.7722 64.9172 70.85H61.122L59.5359 71.725H61.7451C61.2542 71.9583 60.7633 72.1722 60.2723 72.3667C59.7814 72.5222 59.2716 72.6972 58.7429 72.8917H56.7037C55.4198 73.2806 54.0225 73.5722 52.512 73.7667H52.7952C52.191 73.8444 51.5679 73.9028 50.9259 73.9417C50.284 73.9806 49.642 74 49 74C48.2825 74 47.565 73.9806 46.8475 73.9417C46.1678 73.9028 45.5069 73.8444 44.8649 73.7667H44.6383C43.0145 73.5722 41.5606 73.2806 40.2767 72.8917H42.3159C41.7495 72.6972 41.2208 72.5222 40.7298 72.3667C40.2389 72.1722 39.748 71.9583 39.2571 71.725H37.0479C36.7836 71.5694 36.5192 71.4333 36.2549 71.3167C35.9906 71.1611 35.7262 71.0056 35.4619 70.85H39.3137L38.8606 70.5583H42.2026C42.1649 70.4806 42.1082 70.4222 42.0327 70.3833C41.9572 70.3444 41.8816 70.3056 41.8061 70.2667H34.1024C33.9513 70.1889 33.8192 70.0917 33.7059 69.975C33.5926 69.8583 33.4793 69.7611 33.366 69.6833H29.1743C28.9855 69.4889 28.7967 69.2944 28.6078 69.1C28.3813 68.9056 28.1736 68.7111 27.9847 68.5167H41.3529C41.3152 68.4389 41.2774 68.3806 41.2397 68.3417C41.2019 68.3028 41.1641 68.2639 41.1264 68.225H32.4597C32.3086 68.0694 32.1576 67.875 32.0065 67.6417H34.329C34.2912 67.5639 34.2535 67.5056 34.2157 67.4667C34.1779 67.4278 34.1402 67.3889 34.1024 67.35H41.183L40.6732 66.475H37.1612L36.9913 66.1833H29.0044C28.9666 66.0278 28.9099 65.8917 28.8344 65.775C28.7589 65.6194 28.6834 65.4639 28.6078 65.3083H32.4031L32.0632 64.4333H30.7037L30.5904 64.1417H31.2135C31.1757 63.9861 31.138 63.85 31.1002 63.7333C31.0625 63.5778 31.0247 63.4222 30.9869 63.2667H30.5338C30.5338 63.1111 30.5149 62.975 30.4771 62.8583C30.4771 62.7028 30.4582 62.5472 30.4205 62.3917H29.9673C29.9673 62.2361 29.9484 62.1 29.9107 61.9833C29.9107 61.8667 29.9107 61.7306 29.9107 61.575V61.5167H29.854C29.854 61.4389 29.854 61.3806 29.854 61.3417C29.8918 61.3028 29.9107 61.2639 29.9107 61.225H31.2135C31.4023 60.6028 31.7988 60.2917 32.4031 60.2917H43.1656C43.7698 60.2917 44.223 60.3694 44.5251 60.525C44.8272 60.6806 45.167 60.9139 45.5447 61.225H44.2418L44.2985 61.2833C44.374 61.3222 44.4306 61.3611 44.4684 61.4C44.5439 61.4389 44.6006 61.4778 44.6383 61.5167H44.695C45.1859 61.9056 45.7901 62.1972 46.5076 62.3917H47.0174C47.5084 62.5472 48.1692 62.625 49 62.625C49.4909 62.625 49.9441 62.6056 50.3595 62.5667C50.7749 62.5278 51.1336 62.4694 51.4357 62.3917H51.2658C52.1344 62.1972 52.6819 61.9056 52.9085 61.5167H52.7952C52.8707 61.3611 52.9085 61.2639 52.9085 61.225H53.4749L53.5316 60.9917C53.5316 60.6417 53.3994 60.3306 53.1351 60.0583H52.6819C52.342 59.7083 51.7378 59.4167 50.8693 59.1833H50.6994C50.3595 59.0667 49.963 58.9694 49.5098 58.8917C49.0566 58.775 48.528 58.6778 47.9237 58.6H47.5839L45.2614 58.25C44.9971 58.2111 44.7328 58.1722 44.4684 58.1333C44.2418 58.0944 43.9964 58.0556 43.732 58.0167C42.1837 57.7444 40.6921 57.3556 39.2571 56.85H38.2375C37.7088 56.6556 37.2179 56.4611 36.7647 56.2667H35.9717C35.7829 56.1889 35.594 56.1111 35.4052 56.0333C35.2164 55.9167 35.0276 55.8 34.8388 55.6833H29.9107C29.6463 55.5278 29.4009 55.3917 29.1743 55.275C28.9477 55.1194 28.7211 54.9639 28.4946 54.8083H39.0305C38.8417 54.6528 38.6529 54.5167 38.4641 54.4C38.313 54.2444 38.1431 54.0889 37.9542 53.9333H26.6819C26.5686 53.8556 26.4742 53.7583 26.3987 53.6417C26.2854 53.525 26.191 53.4278 26.1155 53.35H29.061C28.7211 52.9611 28.4001 52.5722 28.098 52.1833H28.9477L28.6078 51.6H23.1699C23.1322 51.5222 23.0944 51.4639 23.0566 51.425C23.0189 51.3861 23 51.3472 23 51.3083H35.915C35.8395 51.1528 35.764 51.0167 35.6885 50.9C35.6129 50.7444 35.5374 50.5889 35.4619 50.4333H25.549L25.2092 49.5583H33.1961L33.0828 49.2667H30.7037L30.5904 48.975H31.7233C31.7233 48.8972 31.7044 48.8389 31.6667 48.8C31.6667 48.7611 31.6667 48.7222 31.6667 48.6833H31.4401L31.2702 48.1H30.9303L30.8736 47.5167H30.7603V47.225H28.9477C28.9099 47.1472 28.8911 47.05 28.8911 46.9333C28.8911 46.8167 28.8911 46.7194 28.8911 46.6417H27.2484L27.1917 46.0583H33.6492C33.6115 45.9806 33.5926 45.8833 33.5926 45.7667C33.5926 45.65 33.5926 45.5528 33.5926 45.475H34.4989V45.4167C34.4989 45.2222 34.4989 45.0278 34.4989 44.8333C34.4989 44.6389 34.5178 44.4639 34.5556 44.3083H32.1198C32.1576 44.1528 32.1765 44.0167 32.1765 43.9C32.1765 43.7444 32.1954 43.5889 32.2331 43.4333H36.1983C36.1983 43.3556 36.1983 43.2972 36.1983 43.2583C36.236 43.2194 36.2549 43.1806 36.2549 43.1417H32.2331C32.3086 42.9083 32.3464 42.7139 32.3464 42.5583H31.7233L31.8932 41.975H30.9303C31.0436 41.5472 31.1757 41.1583 31.3268 40.8083H31.78L32.0065 40.225H32.6296L33.1394 39.35H32.573C32.6863 39.1944 32.7807 39.0583 32.8562 38.9417C32.9695 38.7861 33.0639 38.6306 33.1394 38.475H32.6863L33.366 37.6H34.5556C34.5933 37.5222 34.6311 37.4639 34.6688 37.425C34.7066 37.3861 34.7444 37.3472 34.7821 37.3083H33.1961C33.3471 37.1528 33.4982 37.0167 33.6492 36.9C33.8003 36.7444 33.9513 36.5889 34.1024 36.4333H35.0087C35.2353 36.2389 35.4619 36.0444 35.6885 35.85C35.915 35.6167 36.1605 35.4222 36.4248 35.2667H37.4444C37.671 35.1111 37.8976 34.975 38.1242 34.8583C38.3508 34.7028 38.5962 34.5472 38.8606 34.3917H38.6906C38.7662 34.3139 38.8606 34.2556 38.9739 34.2167C39.0871 34.1778 39.1816 34.1389 39.2571 34.1H38.4641C38.5396 34.0222 38.634 33.9639 38.7473 33.925C38.8606 33.8861 38.9739 33.8472 39.0871 33.8083H38.5207C39.0494 33.575 39.597 33.3611 40.1634 33.1667C40.7676 32.9722 41.3718 32.7972 41.976 32.6417H42.8257C43.6943 32.4472 44.6006 32.2917 45.5447 32.175C46.5265 32.0583 47.5461 32 48.6035 32C50.6049 32 52.4931 32.2139 54.268 32.6417H53.4749C54.6834 32.9139 55.854 33.3028 56.9869 33.8083H57.4967C57.61 33.8472 57.7233 33.8861 57.8366 33.925C57.9499 33.9639 58.0632 34.0222 58.1765 34.1H58.9695C59.045 34.1389 59.1394 34.1778 59.2527 34.2167C59.366 34.2556 59.4604 34.3139 59.5359 34.3917H59.7059C59.9702 34.5472 60.2157 34.7028 60.4423 34.8583C60.7066 34.975 60.9521 35.1111 61.1786 35.2667H60.2157C60.5178 35.4222 60.7821 35.6167 61.0087 35.85C61.2731 36.0444 61.5185 36.2389 61.7451 36.4333H60.8954L61.8017 37.3083H63.3878L63.671 37.6H62.4815C62.6325 37.7556 62.7647 37.9111 62.878 38.0667C63.029 38.1833 63.1612 38.3194 63.2745 38.475H63.7277L64.4074 39.35H64.9172L65.427 40.225H64.8039C64.9172 40.4194 65.0116 40.6139 65.0871 40.8083H64.634C64.7473 41.0028 64.8417 41.1972 64.9172 41.3917C64.9927 41.5861 65.0683 41.7806 65.1438 41.975H66.1068C66.1823 42.2083 66.22 42.4028 66.22 42.5583H66.8998C66.9375 42.6361 66.9564 42.7333 66.9564 42.85C66.9564 42.9667 66.9753 43.0639 67.0131 43.1417H71.0349V43.4333H67.4096C67.4474 43.5889 67.4662 43.8028 67.4662 44.075V44.3083H65.3704C65.2193 45.0083 64.8417 45.3583 64.2375 45.3583H52.9085C52.3798 45.3583 51.9455 45.2806 51.6057 45.125C51.3036 44.9694 50.9826 44.7361 50.6427 44.425L50.4728 44.3083H52.5686C52.3798 44.1528 52.1155 43.9972 51.7756 43.8417C51.4357 43.6472 51.0015 43.5111 50.4728 43.4333H48.4336C47.6405 43.55 47.093 43.8417 46.7909 44.3083H49.2266C49.1133 44.5417 49.0566 44.775 49.0566 45.0083C49.0566 45.2028 49.0755 45.3583 49.1133 45.475H48.2636C48.3014 45.6694 48.4524 45.8639 48.7168 46.0583H42.3159C42.5425 46.2528 42.939 46.4472 43.5054 46.6417H45.1481C45.4503 46.7583 45.809 46.875 46.2244 46.9917C46.6776 47.0694 47.1496 47.1472 47.6405 47.225H49.4532C49.7553 47.2639 50.0763 47.3028 50.4161 47.3417C50.756 47.3806 51.1147 47.4389 51.4924 47.5167H51.549C52.191 47.5944 52.8141 47.6917 53.4183 47.8083C54.0225 47.8861 54.589 47.9833 55.1176 48.1H55.4575C55.9107 48.1778 56.3261 48.275 56.7037 48.3917C57.1191 48.4694 57.5156 48.5667 57.8932 48.6833H58.1198C58.3086 48.7222 58.4786 48.7611 58.6296 48.8C58.7807 48.8389 58.9317 48.8972 59.0828 48.975H58.0065C58.1576 49.0139 58.2898 49.0528 58.403 49.0917C58.5541 49.1306 58.7052 49.1889 58.8562 49.2667H61.2353C61.3486 49.3056 61.4619 49.3444 61.5752 49.3833C61.7262 49.4222 61.8584 49.4806 61.9717 49.5583H53.9847C54.74 49.8694 55.3442 50.1611 55.7974 50.4333H65.7102C65.9368 50.5889 66.1634 50.7444 66.39 50.9C66.6166 51.0167 66.8243 51.1528 67.0131 51.3083H54.098C54.1736 51.3472 54.2491 51.3861 54.3246 51.425C54.4001 51.4639 54.4568 51.5222 54.4946 51.6H59.9325C60.0458 51.6778 60.159 51.775 60.2723 51.8917C60.3856 52.0083 60.48 52.1056 60.5556 52.1833H59.7059C60.0835 52.5333 60.4045 52.9222 60.6688 53.35H57.7233C57.7988 53.4278 57.8744 53.525 57.9499 53.6417C58.0254 53.7583 58.0821 53.8556 58.1198 53.9333H69.3355L69.8453 54.8083H59.3094C59.3849 54.9639 59.4604 55.1194 59.5359 55.275C59.6115 55.3917 59.6681 55.5278 59.7059 55.6833H64.5773L64.7473 56.2667H65.5403L65.7102 56.85H66.7299C66.8054 57.0056 66.8431 57.2 66.8431 57.4333C66.8809 57.6278 66.9187 57.8222 66.9564 58.0167L67.0131 58.6H67.3529C67.3907 58.6778 67.4096 58.775 67.4096 58.8917C67.4096 59.0083 67.4096 59.1056 67.4096 59.1833H67.5795V60.0583H68.0893V60.2333C68.0893 60.3889 68.0704 60.5444 68.0327 60.7C68.0327 60.8556 68.0327 61.0306 68.0327 61.225H67.4662V61.5167H67.5795C67.5795 61.6722 67.5606 61.8278 67.5229 61.9833C67.5229 62.1 67.504 62.2361 67.4662 62.3917H67.6362L67.4662 63.2667H67.9194C67.8816 63.4222 67.8439 63.5778 67.8061 63.7333C67.7683 63.85 67.7117 63.9861 67.6362 64.1417H67.0131C67.0131 64.1806 66.9942 64.2194 66.9564 64.2583C66.9564 64.2972 66.9564 64.3556 66.9564 64.4333H68.3159L67.976 65.3083H64.1808C64.1431 65.4639 64.0675 65.6194 63.9542 65.775C63.8787 65.8917 63.8032 66.0278 63.7277 66.1833H71.7146L71.5447 66.475H75C74.9245 66.6306 74.8301 66.7861 74.7168 66.9417C74.6413 67.0583 74.5468 67.1944 74.4336 67.35H67.3529C67.3152 67.3889 67.2774 67.4278 67.2397 67.4667C67.2019 67.5056 67.1641 67.5639 67.1264 67.6417ZM52.3987 43.4333H54.098C53.9847 43.3944 53.8526 43.375 53.7015 43.375C53.5882 43.375 53.4561 43.375 53.305 43.375C53.154 43.375 53.0029 43.375 52.8519 43.375C52.7008 43.375 52.5497 43.3944 52.3987 43.4333Z" fill="#39E5E4"/>
<path d="M68.1264 68.6417H65.8039L65.2941 69.225H73.9608C73.923 69.2639 73.8853 69.3028 73.8475 69.3417C73.8097 69.3806 73.7531 69.4389 73.6776 69.5167H60.3094C60.1206 69.7111 59.9129 69.9056 59.6863 70.1C59.4975 70.2944 59.2898 70.4889 59.0632 70.6833H63.1983L62.4619 71.2667H70.1656L69.7124 71.5583H66.3704C66.3326 71.5972 66.2571 71.6361 66.1438 71.675C66.0683 71.7139 65.9927 71.7722 65.9172 71.85H62.122L60.5359 72.725H62.7451C62.2542 72.9583 61.7633 73.1722 61.2723 73.3667C60.7814 73.5222 60.2716 73.6972 59.7429 73.8917H57.7037C56.4198 74.2806 55.0225 74.5722 53.512 74.7667H53.7952C53.191 74.8444 52.5679 74.9028 51.9259 74.9417C51.284 74.9806 50.642 75 50 75C49.2825 75 48.565 74.9806 47.8475 74.9417C47.1678 74.9028 46.5069 74.8444 45.8649 74.7667H45.6383C44.0145 74.5722 42.5606 74.2806 41.2767 73.8917H43.3159C42.7495 73.6972 42.2208 73.5222 41.7298 73.3667C41.2389 73.1722 40.748 72.9583 40.2571 72.725H38.0479C37.7836 72.5694 37.5192 72.4333 37.2549 72.3167C36.9906 72.1611 36.7262 72.0056 36.4619 71.85H40.3137L39.8606 71.5583H43.2026C43.1649 71.4806 43.1082 71.4222 43.0327 71.3833C42.9572 71.3444 42.8816 71.3056 42.8061 71.2667H35.1024C34.9513 71.1889 34.8192 71.0917 34.7059 70.975C34.5926 70.8583 34.4793 70.7611 34.366 70.6833H30.1743C29.9855 70.4889 29.7967 70.2944 29.6078 70.1C29.3813 69.9056 29.1736 69.7111 28.9847 69.5167H42.3529C42.3152 69.4389 42.2774 69.3806 42.2397 69.3417C42.2019 69.3028 42.1641 69.2639 42.1264 69.225H33.4597C33.3086 69.0694 33.1576 68.875 33.0065 68.6417H35.329C35.2912 68.5639 35.2535 68.5056 35.2157 68.4667C35.1779 68.4278 35.1402 68.3889 35.1024 68.35H42.183L41.6732 67.475H38.1612L37.9913 67.1833H30.0044C29.9666 67.0278 29.9099 66.8917 29.8344 66.775C29.7589 66.6194 29.6834 66.4639 29.6078 66.3083H33.4031L33.0632 65.4333H31.7037L31.5904 65.1417H32.2135C32.1757 64.9861 32.138 64.85 32.1002 64.7333C32.0625 64.5778 32.0247 64.4222 31.9869 64.2667H31.5338C31.5338 64.1111 31.5149 63.975 31.4771 63.8583C31.4771 63.7028 31.4582 63.5472 31.4205 63.3917H30.9673C30.9673 63.2361 30.9484 63.1 30.9107 62.9833C30.9107 62.8667 30.9107 62.7306 30.9107 62.575V62.5167H30.854C30.854 62.4389 30.854 62.3806 30.854 62.3417C30.8918 62.3028 30.9107 62.2639 30.9107 62.225H32.2135C32.4023 61.6028 32.7988 61.2917 33.4031 61.2917H44.1656C44.7698 61.2917 45.223 61.3694 45.5251 61.525C45.8272 61.6806 46.167 61.9139 46.5447 62.225H45.2418L45.2985 62.2833C45.374 62.3222 45.4306 62.3611 45.4684 62.4C45.5439 62.4389 45.6006 62.4778 45.6383 62.5167H45.695C46.1859 62.9056 46.7901 63.1972 47.5076 63.3917H48.0174C48.5084 63.5472 49.1692 63.625 50 63.625C50.4909 63.625 50.9441 63.6056 51.3595 63.5667C51.7749 63.5278 52.1336 63.4694 52.4357 63.3917H52.2658C53.1344 63.1972 53.6819 62.9056 53.9085 62.5167H53.7952C53.8707 62.3611 53.9085 62.2639 53.9085 62.225H54.4749L54.5316 61.9917C54.5316 61.6417 54.3994 61.3306 54.1351 61.0583H53.6819C53.342 60.7083 52.7378 60.4167 51.8693 60.1833H51.6994C51.3595 60.0667 50.963 59.9694 50.5098 59.8917C50.0566 59.775 49.528 59.6778 48.9237 59.6H48.5839L46.2614 59.25C45.9971 59.2111 45.7328 59.1722 45.4684 59.1333C45.2418 59.0944 44.9964 59.0556 44.732 59.0167C43.1837 58.7444 41.6921 58.3556 40.2571 57.85H39.2375C38.7088 57.6556 38.2179 57.4611 37.7647 57.2667H36.9717C36.7829 57.1889 36.594 57.1111 36.4052 57.0333C36.2164 56.9167 36.0276 56.8 35.8388 56.6833H30.9107C30.6463 56.5278 30.4009 56.3917 30.1743 56.275C29.9477 56.1194 29.7211 55.9639 29.4946 55.8083H40.0305C39.8417 55.6528 39.6529 55.5167 39.4641 55.4C39.313 55.2444 39.1431 55.0889 38.9542 54.9333H27.6819C27.5686 54.8556 27.4742 54.7583 27.3987 54.6417C27.2854 54.525 27.191 54.4278 27.1155 54.35H30.061C29.7211 53.9611 29.4001 53.5722 29.098 53.1833H29.9477L29.6078 52.6H24.1699C24.1322 52.5222 24.0944 52.4639 24.0566 52.425C24.0189 52.3861 24 52.3472 24 52.3083H36.915C36.8395 52.1528 36.764 52.0167 36.6885 51.9C36.6129 51.7444 36.5374 51.5889 36.4619 51.4333H26.549L26.2092 50.5583H34.1961L34.0828 50.2667H31.7037L31.5904 49.975H32.7233C32.7233 49.8972 32.7044 49.8389 32.6667 49.8C32.6667 49.7611 32.6667 49.7222 32.6667 49.6833H32.4401L32.2702 49.1H31.9303L31.8736 48.5167H31.7603V48.225H29.9477C29.9099 48.1472 29.8911 48.05 29.8911 47.9333C29.8911 47.8167 29.8911 47.7194 29.8911 47.6417H28.2484L28.1917 47.0583H34.6492C34.6115 46.9806 34.5926 46.8833 34.5926 46.7667C34.5926 46.65 34.5926 46.5528 34.5926 46.475H35.4989V46.4167C35.4989 46.2222 35.4989 46.0278 35.4989 45.8333C35.4989 45.6389 35.5178 45.4639 35.5556 45.3083H33.1198C33.1576 45.1528 33.1765 45.0167 33.1765 44.9C33.1765 44.7444 33.1954 44.5889 33.2331 44.4333H37.1983C37.1983 44.3556 37.1983 44.2972 37.1983 44.2583C37.236 44.2194 37.2549 44.1806 37.2549 44.1417H33.2331C33.3086 43.9083 33.3464 43.7139 33.3464 43.5583H32.7233L32.8932 42.975H31.9303C32.0436 42.5472 32.1757 42.1583 32.3268 41.8083H32.78L33.0065 41.225H33.6296L34.1394 40.35H33.573C33.6863 40.1944 33.7807 40.0583 33.8562 39.9417C33.9695 39.7861 34.0639 39.6306 34.1394 39.475H33.6863L34.366 38.6H35.5556C35.5933 38.5222 35.6311 38.4639 35.6688 38.425C35.7066 38.3861 35.7444 38.3472 35.7821 38.3083H34.1961C34.3471 38.1528 34.4982 38.0167 34.6492 37.9C34.8003 37.7444 34.9513 37.5889 35.1024 37.4333H36.0087C36.2353 37.2389 36.4619 37.0444 36.6885 36.85C36.915 36.6167 37.1605 36.4222 37.4248 36.2667H38.4444C38.671 36.1111 38.8976 35.975 39.1242 35.8583C39.3508 35.7028 39.5962 35.5472 39.8606 35.3917H39.6906C39.7662 35.3139 39.8606 35.2556 39.9739 35.2167C40.0871 35.1778 40.1816 35.1389 40.2571 35.1H39.4641C39.5396 35.0222 39.634 34.9639 39.7473 34.925C39.8606 34.8861 39.9739 34.8472 40.0871 34.8083H39.5207C40.0494 34.575 40.597 34.3611 41.1634 34.1667C41.7676 33.9722 42.3718 33.7972 42.976 33.6417H43.8257C44.6943 33.4472 45.6006 33.2917 46.5447 33.175C47.5265 33.0583 48.5461 33 49.6035 33C51.6049 33 53.4931 33.2139 55.268 33.6417H54.4749C55.6834 33.9139 56.854 34.3028 57.9869 34.8083H58.4967C58.61 34.8472 58.7233 34.8861 58.8366 34.925C58.9499 34.9639 59.0632 35.0222 59.1765 35.1H59.9695C60.045 35.1389 60.1394 35.1778 60.2527 35.2167C60.366 35.2556 60.4604 35.3139 60.5359 35.3917H60.7059C60.9702 35.5472 61.2157 35.7028 61.4423 35.8583C61.7066 35.975 61.9521 36.1111 62.1786 36.2667H61.2157C61.5178 36.4222 61.7821 36.6167 62.0087 36.85C62.2731 37.0444 62.5185 37.2389 62.7451 37.4333H61.8954L62.8017 38.3083H64.3878L64.671 38.6H63.4815C63.6325 38.7556 63.7647 38.9111 63.878 39.0667C64.029 39.1833 64.1612 39.3194 64.2745 39.475H64.7277L65.4074 40.35H65.9172L66.427 41.225H65.8039C65.9172 41.4194 66.0116 41.6139 66.0871 41.8083H65.634C65.7473 42.0028 65.8417 42.1972 65.9172 42.3917C65.9927 42.5861 66.0683 42.7806 66.1438 42.975H67.1068C67.1823 43.2083 67.22 43.4028 67.22 43.5583H67.8998C67.9375 43.6361 67.9564 43.7333 67.9564 43.85C67.9564 43.9667 67.9753 44.0639 68.0131 44.1417H72.0349V44.4333H68.4096C68.4474 44.5889 68.4662 44.8028 68.4662 45.075V45.3083H66.3704C66.2193 46.0083 65.8417 46.3583 65.2375 46.3583H53.9085C53.3798 46.3583 52.9455 46.2806 52.6057 46.125C52.3036 45.9694 51.9826 45.7361 51.6427 45.425L51.4728 45.3083H53.5686C53.3798 45.1528 53.1155 44.9972 52.7756 44.8417C52.4357 44.6472 52.0015 44.5111 51.4728 44.4333H49.4336C48.6405 44.55 48.093 44.8417 47.7909 45.3083H50.2266C50.1133 45.5417 50.0566 45.775 50.0566 46.0083C50.0566 46.2028 50.0755 46.3583 50.1133 46.475H49.2636C49.3014 46.6694 49.4524 46.8639 49.7168 47.0583H43.3159C43.5425 47.2528 43.939 47.4472 44.5054 47.6417H46.1481C46.4503 47.7583 46.809 47.875 47.2244 47.9917C47.6776 48.0694 48.1496 48.1472 48.6405 48.225H50.4532C50.7553 48.2639 51.0763 48.3028 51.4161 48.3417C51.756 48.3806 52.1147 48.4389 52.4924 48.5167H52.549C53.191 48.5944 53.8141 48.6917 54.4183 48.8083C55.0225 48.8861 55.589 48.9833 56.1176 49.1H56.4575C56.9107 49.1778 57.3261 49.275 57.7037 49.3917C58.1191 49.4694 58.5156 49.5667 58.8932 49.6833H59.1198C59.3086 49.7222 59.4786 49.7611 59.6296 49.8C59.7807 49.8389 59.9317 49.8972 60.0828 49.975H59.0065C59.1576 50.0139 59.2898 50.0528 59.403 50.0917C59.5541 50.1306 59.7052 50.1889 59.8562 50.2667H62.2353C62.3486 50.3056 62.4619 50.3444 62.5752 50.3833C62.7262 50.4222 62.8584 50.4806 62.9717 50.5583H54.9847C55.74 50.8694 56.3442 51.1611 56.7974 51.4333H66.7102C66.9368 51.5889 67.1634 51.7444 67.39 51.9C67.6166 52.0167 67.8243 52.1528 68.0131 52.3083H55.098C55.1736 52.3472 55.2491 52.3861 55.3246 52.425C55.4001 52.4639 55.4568 52.5222 55.4946 52.6H60.9325C61.0458 52.6778 61.159 52.775 61.2723 52.8917C61.3856 53.0083 61.48 53.1056 61.5556 53.1833H60.7059C61.0835 53.5333 61.4045 53.9222 61.6688 54.35H58.7233C58.7988 54.4278 58.8744 54.525 58.9499 54.6417C59.0254 54.7583 59.0821 54.8556 59.1198 54.9333H70.3355L70.8453 55.8083H60.3094C60.3849 55.9639 60.4604 56.1194 60.5359 56.275C60.6115 56.3917 60.6681 56.5278 60.7059 56.6833H65.5773L65.7473 57.2667H66.5403L66.7102 57.85H67.7299C67.8054 58.0056 67.8431 58.2 67.8431 58.4333C67.8809 58.6278 67.9187 58.8222 67.9564 59.0167L68.0131 59.6H68.3529C68.3907 59.6778 68.4096 59.775 68.4096 59.8917C68.4096 60.0083 68.4096 60.1056 68.4096 60.1833H68.5795V61.0583H69.0893V61.2333C69.0893 61.3889 69.0704 61.5444 69.0327 61.7C69.0327 61.8556 69.0327 62.0306 69.0327 62.225H68.4662V62.5167H68.5795C68.5795 62.6722 68.5606 62.8278 68.5229 62.9833C68.5229 63.1 68.504 63.2361 68.4662 63.3917H68.6362L68.4662 64.2667H68.9194C68.8816 64.4222 68.8439 64.5778 68.8061 64.7333C68.7683 64.85 68.7117 64.9861 68.6362 65.1417H68.0131C68.0131 65.1806 67.9942 65.2194 67.9564 65.2583C67.9564 65.2972 67.9564 65.3556 67.9564 65.4333H69.3159L68.976 66.3083H65.1808C65.1431 66.4639 65.0675 66.6194 64.9542 66.775C64.8787 66.8917 64.8032 67.0278 64.7277 67.1833H72.7146L72.5447 67.475H76C75.9245 67.6306 75.8301 67.7861 75.7168 67.9417C75.6413 68.0583 75.5468 68.1944 75.4336 68.35H68.3529C68.3152 68.3889 68.2774 68.4278 68.2397 68.4667C68.2019 68.5056 68.1641 68.5639 68.1264 68.6417ZM53.3987 44.4333H55.098C54.9847 44.3944 54.8526 44.375 54.7015 44.375C54.5882 44.375 54.4561 44.375 54.305 44.375C54.154 44.375 54.0029 44.375 53.8519 44.375C53.7008 44.375 53.5497 44.3944 53.3987 44.4333Z" fill="white"/>
</svg>
