<svg width="105" height="105" viewBox="0 0 105 105" fill="none" xmlns="http://www.w3.org/2000/svg">
<rect width="105" height="105" fill="white"/>
<path d="M72.1264 67.6417H69.8039L69.2941 68.225H77.9608C77.923 68.2639 77.8853 68.3028 77.8475 68.3417C77.8097 68.3806 77.7531 68.4389 77.6776 68.5167H64.3094C64.1206 68.7111 63.9129 68.9056 63.6863 69.1C63.4975 69.2944 63.2898 69.4889 63.0632 69.6833H67.1983L66.4619 70.2667H74.1656L73.7124 70.5583H70.3704C70.3326 70.5972 70.2571 70.6361 70.1438 70.675C70.0683 70.7139 69.9927 70.7722 69.9172 70.85H66.122L64.5359 71.725H66.7451C66.2542 71.9583 65.7633 72.1722 65.2723 72.3667C64.7814 72.5222 64.2716 72.6972 63.7429 72.8917H61.7037C60.4198 73.2806 59.0225 73.5722 57.512 73.7667H57.7952C57.191 73.8444 56.5679 73.9028 55.9259 73.9417C55.284 73.9806 54.642 74 54 74C53.2825 74 52.565 73.9806 51.8475 73.9417C51.1678 73.9028 50.5069 73.8444 49.8649 73.7667H49.6383C48.0145 73.5722 46.5606 73.2806 45.2767 72.8917H47.3159C46.7495 72.6972 46.2208 72.5222 45.7298 72.3667C45.2389 72.1722 44.748 71.9583 44.2571 71.725H42.0479C41.7836 71.5694 41.5192 71.4333 41.2549 71.3167C40.9906 71.1611 40.7262 71.0056 40.4619 70.85H44.3137L43.8606 70.5583H47.2026C47.1649 70.4806 47.1082 70.4222 47.0327 70.3833C46.9572 70.3444 46.8816 70.3056 46.8061 70.2667H39.1024C38.9513 70.1889 38.8192 70.0917 38.7059 69.975C38.5926 69.8583 38.4793 69.7611 38.366 69.6833H34.1743C33.9855 69.4889 33.7967 69.2944 33.6078 69.1C33.3813 68.9056 33.1736 68.7111 32.9847 68.5167H46.3529C46.3152 68.4389 46.2774 68.3806 46.2397 68.3417C46.2019 68.3028 46.1641 68.2639 46.1264 68.225H37.4597C37.3086 68.0694 37.1576 67.875 37.0065 67.6417H39.329C39.2912 67.5639 39.2535 67.5056 39.2157 67.4667C39.1779 67.4278 39.1402 67.3889 39.1024 67.35H46.183L45.6732 66.475H42.1612L41.9913 66.1833H34.0044C33.9666 66.0278 33.9099 65.8917 33.8344 65.775C33.7589 65.6194 33.6834 65.4639 33.6078 65.3083H37.4031L37.0632 64.4333H35.7037L35.5904 64.1417H36.2135C36.1757 63.9861 36.138 63.85 36.1002 63.7333C36.0625 63.5778 36.0247 63.4222 35.9869 63.2667H35.5338C35.5338 63.1111 35.5149 62.975 35.4771 62.8583C35.4771 62.7028 35.4582 62.5472 35.4205 62.3917H34.9673C34.9673 62.2361 34.9484 62.1 34.9107 61.9833C34.9107 61.8667 34.9107 61.7306 34.9107 61.575V61.5167H34.854C34.854 61.4389 34.854 61.3806 34.854 61.3417C34.8918 61.3028 34.9107 61.2639 34.9107 61.225H36.2135C36.4023 60.6028 36.7988 60.2917 37.4031 60.2917H48.1656C48.7698 60.2917 49.223 60.3694 49.5251 60.525C49.8272 60.6806 50.167 60.9139 50.5447 61.225H49.2418L49.2985 61.2833C49.374 61.3222 49.4306 61.3611 49.4684 61.4C49.5439 61.4389 49.6006 61.4778 49.6383 61.5167H49.695C50.1859 61.9056 50.7901 62.1972 51.5076 62.3917H52.0174C52.5084 62.5472 53.1692 62.625 54 62.625C54.4909 62.625 54.9441 62.6056 55.3595 62.5667C55.7749 62.5278 56.1336 62.4694 56.4357 62.3917H56.2658C57.1344 62.1972 57.6819 61.9056 57.9085 61.5167H57.7952C57.8707 61.3611 57.9085 61.2639 57.9085 61.225H58.4749L58.5316 60.9917C58.5316 60.6417 58.3994 60.3306 58.1351 60.0583H57.6819C57.342 59.7083 56.7378 59.4167 55.8693 59.1833H55.6994C55.3595 59.0667 54.963 58.9694 54.5098 58.8917C54.0566 58.775 53.528 58.6778 52.9237 58.6H52.5839L50.2614 58.25C49.9971 58.2111 49.7328 58.1722 49.4684 58.1333C49.2418 58.0944 48.9964 58.0556 48.732 58.0167C47.1837 57.7444 45.6921 57.3556 44.2571 56.85H43.2375C42.7088 56.6556 42.2179 56.4611 41.7647 56.2667H40.9717C40.7829 56.1889 40.594 56.1111 40.4052 56.0333C40.2164 55.9167 40.0276 55.8 39.8388 55.6833H34.9107C34.6463 55.5278 34.4009 55.3917 34.1743 55.275C33.9477 55.1194 33.7211 54.9639 33.4946 54.8083H44.0305C43.8417 54.6528 43.6529 54.5167 43.4641 54.4C43.313 54.2444 43.1431 54.0889 42.9542 53.9333H31.6819C31.5686 53.8556 31.4742 53.7583 31.3987 53.6417C31.2854 53.525 31.191 53.4278 31.1155 53.35H34.061C33.7211 52.9611 33.4001 52.5722 33.098 52.1833H33.9477L33.6078 51.6H28.1699C28.1322 51.5222 28.0944 51.4639 28.0566 51.425C28.0189 51.3861 28 51.3472 28 51.3083H40.915C40.8395 51.1528 40.764 51.0167 40.6885 50.9C40.6129 50.7444 40.5374 50.5889 40.4619 50.4333H30.549L30.2092 49.5583H38.1961L38.0828 49.2667H35.7037L35.5904 48.975H36.7233C36.7233 48.8972 36.7044 48.8389 36.6667 48.8C36.6667 48.7611 36.6667 48.7222 36.6667 48.6833H36.4401L36.2702 48.1H35.9303L35.8736 47.5167H35.7603V47.225H33.9477C33.9099 47.1472 33.8911 47.05 33.8911 46.9333C33.8911 46.8167 33.8911 46.7194 33.8911 46.6417H32.2484L32.1917 46.0583H38.6492C38.6115 45.9806 38.5926 45.8833 38.5926 45.7667C38.5926 45.65 38.5926 45.5528 38.5926 45.475H39.4989V45.4167C39.4989 45.2222 39.4989 45.0278 39.4989 44.8333C39.4989 44.6389 39.5178 44.4639 39.5556 44.3083H37.1198C37.1576 44.1528 37.1765 44.0167 37.1765 43.9C37.1765 43.7444 37.1954 43.5889 37.2331 43.4333H41.1983C41.1983 43.3556 41.1983 43.2972 41.1983 43.2583C41.236 43.2194 41.2549 43.1806 41.2549 43.1417H37.2331C37.3086 42.9083 37.3464 42.7139 37.3464 42.5583H36.7233L36.8932 41.975H35.9303C36.0436 41.5472 36.1757 41.1583 36.3268 40.8083H36.78L37.0065 40.225H37.6296L38.1394 39.35H37.573C37.6863 39.1944 37.7807 39.0583 37.8562 38.9417C37.9695 38.7861 38.0639 38.6306 38.1394 38.475H37.6863L38.366 37.6H39.5556C39.5933 37.5222 39.6311 37.4639 39.6688 37.425C39.7066 37.3861 39.7444 37.3472 39.7821 37.3083H38.1961C38.3471 37.1528 38.4982 37.0167 38.6492 36.9C38.8003 36.7444 38.9513 36.5889 39.1024 36.4333H40.0087C40.2353 36.2389 40.4619 36.0444 40.6885 35.85C40.915 35.6167 41.1605 35.4222 41.4248 35.2667H42.4444C42.671 35.1111 42.8976 34.975 43.1242 34.8583C43.3508 34.7028 43.5962 34.5472 43.8606 34.3917H43.6906C43.7662 34.3139 43.8606 34.2556 43.9739 34.2167C44.0871 34.1778 44.1816 34.1389 44.2571 34.1H43.4641C43.5396 34.0222 43.634 33.9639 43.7473 33.925C43.8606 33.8861 43.9739 33.8472 44.0871 33.8083H43.5207C44.0494 33.575 44.597 33.3611 45.1634 33.1667C45.7676 32.9722 46.3718 32.7972 46.976 32.6417H47.8257C48.6943 32.4472 49.6006 32.2917 50.5447 32.175C51.5265 32.0583 52.5461 32 53.6035 32C55.6049 32 57.4931 32.2139 59.268 32.6417H58.4749C59.6834 32.9139 60.854 33.3028 61.9869 33.8083H62.4967C62.61 33.8472 62.7233 33.8861 62.8366 33.925C62.9499 33.9639 63.0632 34.0222 63.1765 34.1H63.9695C64.045 34.1389 64.1394 34.1778 64.2527 34.2167C64.366 34.2556 64.4604 34.3139 64.5359 34.3917H64.7059C64.9702 34.5472 65.2157 34.7028 65.4423 34.8583C65.7066 34.975 65.9521 35.1111 66.1786 35.2667H65.2157C65.5178 35.4222 65.7821 35.6167 66.0087 35.85C66.2731 36.0444 66.5185 36.2389 66.7451 36.4333H65.8954L66.8017 37.3083H68.3878L68.671 37.6H67.4815C67.6325 37.7556 67.7647 37.9111 67.878 38.0667C68.029 38.1833 68.1612 38.3194 68.2745 38.475H68.7277L69.4074 39.35H69.9172L70.427 40.225H69.8039C69.9172 40.4194 70.0116 40.6139 70.0871 40.8083H69.634C69.7473 41.0028 69.8417 41.1972 69.9172 41.3917C69.9927 41.5861 70.0683 41.7806 70.1438 41.975H71.1068C71.1823 42.2083 71.22 42.4028 71.22 42.5583H71.8998C71.9375 42.6361 71.9564 42.7333 71.9564 42.85C71.9564 42.9667 71.9753 43.0639 72.0131 43.1417H76.0349V43.4333H72.4096C72.4474 43.5889 72.4662 43.8028 72.4662 44.075V44.3083H70.3704C70.2193 45.0083 69.8417 45.3583 69.2375 45.3583H57.9085C57.3798 45.3583 56.9455 45.2806 56.6057 45.125C56.3036 44.9694 55.9826 44.7361 55.6427 44.425L55.4728 44.3083H57.5686C57.3798 44.1528 57.1155 43.9972 56.7756 43.8417C56.4357 43.6472 56.0015 43.5111 55.4728 43.4333H53.4336C52.6405 43.55 52.093 43.8417 51.7909 44.3083H54.2266C54.1133 44.5417 54.0566 44.775 54.0566 45.0083C54.0566 45.2028 54.0755 45.3583 54.1133 45.475H53.2636C53.3014 45.6694 53.4524 45.8639 53.7168 46.0583H47.3159C47.5425 46.2528 47.939 46.4472 48.5054 46.6417H50.1481C50.4503 46.7583 50.809 46.875 51.2244 46.9917C51.6776 47.0694 52.1496 47.1472 52.6405 47.225H54.4532C54.7553 47.2639 55.0763 47.3028 55.4161 47.3417C55.756 47.3806 56.1147 47.4389 56.4924 47.5167H56.549C57.191 47.5944 57.8141 47.6917 58.4183 47.8083C59.0225 47.8861 59.589 47.9833 60.1176 48.1H60.4575C60.9107 48.1778 61.3261 48.275 61.7037 48.3917C62.1191 48.4694 62.5156 48.5667 62.8932 48.6833H63.1198C63.3086 48.7222 63.4786 48.7611 63.6296 48.8C63.7807 48.8389 63.9317 48.8972 64.0828 48.975H63.0065C63.1576 49.0139 63.2898 49.0528 63.403 49.0917C63.5541 49.1306 63.7052 49.1889 63.8562 49.2667H66.2353C66.3486 49.3056 66.4619 49.3444 66.5752 49.3833C66.7262 49.4222 66.8584 49.4806 66.9717 49.5583H58.9847C59.74 49.8694 60.3442 50.1611 60.7974 50.4333H70.7102C70.9368 50.5889 71.1634 50.7444 71.39 50.9C71.6166 51.0167 71.8243 51.1528 72.0131 51.3083H59.098C59.1736 51.3472 59.2491 51.3861 59.3246 51.425C59.4001 51.4639 59.4568 51.5222 59.4946 51.6H64.9325C65.0458 51.6778 65.159 51.775 65.2723 51.8917C65.3856 52.0083 65.48 52.1056 65.5556 52.1833H64.7059C65.0835 52.5333 65.4045 52.9222 65.6688 53.35H62.7233C62.7988 53.4278 62.8744 53.525 62.9499 53.6417C63.0254 53.7583 63.0821 53.8556 63.1198 53.9333H74.3355L74.8453 54.8083H64.3094C64.3849 54.9639 64.4604 55.1194 64.5359 55.275C64.6115 55.3917 64.6681 55.5278 64.7059 55.6833H69.5773L69.7473 56.2667H70.5403L70.7102 56.85H71.7299C71.8054 57.0056 71.8431 57.2 71.8431 57.4333C71.8809 57.6278 71.9187 57.8222 71.9564 58.0167L72.0131 58.6H72.3529C72.3907 58.6778 72.4096 58.775 72.4096 58.8917C72.4096 59.0083 72.4096 59.1056 72.4096 59.1833H72.5795V60.0583H73.0893V60.2333C73.0893 60.3889 73.0704 60.5444 73.0327 60.7C73.0327 60.8556 73.0327 61.0306 73.0327 61.225H72.4662V61.5167H72.5795C72.5795 61.6722 72.5606 61.8278 72.5229 61.9833C72.5229 62.1 72.504 62.2361 72.4662 62.3917H72.6362L72.4662 63.2667H72.9194C72.8816 63.4222 72.8439 63.5778 72.8061 63.7333C72.7683 63.85 72.7117 63.9861 72.6362 64.1417H72.0131C72.0131 64.1806 71.9942 64.2194 71.9564 64.2583C71.9564 64.2972 71.9564 64.3556 71.9564 64.4333H73.3159L72.976 65.3083H69.1808C69.1431 65.4639 69.0675 65.6194 68.9542 65.775C68.8787 65.8917 68.8032 66.0278 68.7277 66.1833H76.7146L76.5447 66.475H80C79.9245 66.6306 79.8301 66.7861 79.7168 66.9417C79.6413 67.0583 79.5468 67.1944 79.4336 67.35H72.3529C72.3152 67.3889 72.2774 67.4278 72.2397 67.4667C72.2019 67.5056 72.1641 67.5639 72.1264 67.6417ZM57.3987 43.4333H59.098C58.9847 43.3944 58.8526 43.375 58.7015 43.375C58.5882 43.375 58.4561 43.375 58.305 43.375C58.154 43.375 58.0029 43.375 57.8519 43.375C57.7008 43.375 57.5497 43.3944 57.3987 43.4333Z" fill="#D6151C"/>
<path d="M70.1264 65.6417H67.8039L67.2941 66.225H75.9608C75.923 66.2639 75.8853 66.3028 75.8475 66.3417C75.8097 66.3806 75.7531 66.4389 75.6776 66.5167H62.3094C62.1206 66.7111 61.9129 66.9056 61.6863 67.1C61.4975 67.2944 61.2898 67.4889 61.0632 67.6833H65.1983L64.4619 68.2667H72.1656L71.7124 68.5583H68.3704C68.3326 68.5972 68.2571 68.6361 68.1438 68.675C68.0683 68.7139 67.9927 68.7722 67.9172 68.85H64.122L62.5359 69.725H64.7451C64.2542 69.9583 63.7633 70.1722 63.2723 70.3667C62.7814 70.5222 62.2716 70.6972 61.7429 70.8917H59.7037C58.4198 71.2806 57.0225 71.5722 55.512 71.7667H55.7952C55.191 71.8444 54.5679 71.9028 53.9259 71.9417C53.284 71.9806 52.642 72 52 72C51.2825 72 50.565 71.9806 49.8475 71.9417C49.1678 71.9028 48.5069 71.8444 47.8649 71.7667H47.6383C46.0145 71.5722 44.5606 71.2806 43.2767 70.8917H45.3159C44.7495 70.6972 44.2208 70.5222 43.7298 70.3667C43.2389 70.1722 42.748 69.9583 42.2571 69.725H40.0479C39.7836 69.5694 39.5192 69.4333 39.2549 69.3167C38.9906 69.1611 38.7262 69.0056 38.4619 68.85H42.3137L41.8606 68.5583H45.2026C45.1649 68.4806 45.1082 68.4222 45.0327 68.3833C44.9572 68.3444 44.8816 68.3056 44.8061 68.2667H37.1024C36.9513 68.1889 36.8192 68.0917 36.7059 67.975C36.5926 67.8583 36.4793 67.7611 36.366 67.6833H32.1743C31.9855 67.4889 31.7967 67.2944 31.6078 67.1C31.3813 66.9056 31.1736 66.7111 30.9847 66.5167H44.3529C44.3152 66.4389 44.2774 66.3806 44.2397 66.3417C44.2019 66.3028 44.1641 66.2639 44.1264 66.225H35.4597C35.3086 66.0694 35.1576 65.875 35.0065 65.6417H37.329C37.2912 65.5639 37.2535 65.5056 37.2157 65.4667C37.1779 65.4278 37.1402 65.3889 37.1024 65.35H44.183L43.6732 64.475H40.1612L39.9913 64.1833H32.0044C31.9666 64.0278 31.9099 63.8917 31.8344 63.775C31.7589 63.6194 31.6834 63.4639 31.6078 63.3083H35.4031L35.0632 62.4333H33.7037L33.5904 62.1417H34.2135C34.1757 61.9861 34.138 61.85 34.1002 61.7333C34.0625 61.5778 34.0247 61.4222 33.9869 61.2667H33.5338C33.5338 61.1111 33.5149 60.975 33.4771 60.8583C33.4771 60.7028 33.4582 60.5472 33.4205 60.3917H32.9673C32.9673 60.2361 32.9484 60.1 32.9107 59.9833C32.9107 59.8667 32.9107 59.7306 32.9107 59.575V59.5167H32.854C32.854 59.4389 32.854 59.3806 32.854 59.3417C32.8918 59.3028 32.9107 59.2639 32.9107 59.225H34.2135C34.4023 58.6028 34.7988 58.2917 35.4031 58.2917H46.1656C46.7698 58.2917 47.223 58.3694 47.5251 58.525C47.8272 58.6806 48.167 58.9139 48.5447 59.225H47.2418L47.2985 59.2833C47.374 59.3222 47.4306 59.3611 47.4684 59.4C47.5439 59.4389 47.6006 59.4778 47.6383 59.5167H47.695C48.1859 59.9056 48.7901 60.1972 49.5076 60.3917H50.0174C50.5084 60.5472 51.1692 60.625 52 60.625C52.4909 60.625 52.9441 60.6056 53.3595 60.5667C53.7749 60.5278 54.1336 60.4694 54.4357 60.3917H54.2658C55.1344 60.1972 55.6819 59.9056 55.9085 59.5167H55.7952C55.8707 59.3611 55.9085 59.2639 55.9085 59.225H56.4749L56.5316 58.9917C56.5316 58.6417 56.3994 58.3306 56.1351 58.0583H55.6819C55.342 57.7083 54.7378 57.4167 53.8693 57.1833H53.6994C53.3595 57.0667 52.963 56.9694 52.5098 56.8917C52.0566 56.775 51.528 56.6778 50.9237 56.6H50.5839L48.2614 56.25C47.9971 56.2111 47.7328 56.1722 47.4684 56.1333C47.2418 56.0944 46.9964 56.0556 46.732 56.0167C45.1837 55.7444 43.6921 55.3556 42.2571 54.85H41.2375C40.7088 54.6556 40.2179 54.4611 39.7647 54.2667H38.9717C38.7829 54.1889 38.594 54.1111 38.4052 54.0333C38.2164 53.9167 38.0276 53.8 37.8388 53.6833H32.9107C32.6463 53.5278 32.4009 53.3917 32.1743 53.275C31.9477 53.1194 31.7211 52.9639 31.4946 52.8083H42.0305C41.8417 52.6528 41.6529 52.5167 41.4641 52.4C41.313 52.2444 41.1431 52.0889 40.9542 51.9333H29.6819C29.5686 51.8556 29.4742 51.7583 29.3987 51.6417C29.2854 51.525 29.191 51.4278 29.1155 51.35H32.061C31.7211 50.9611 31.4001 50.5722 31.098 50.1833H31.9477L31.6078 49.6H26.1699C26.1322 49.5222 26.0944 49.4639 26.0566 49.425C26.0189 49.3861 26 49.3472 26 49.3083H38.915C38.8395 49.1528 38.764 49.0167 38.6885 48.9C38.6129 48.7444 38.5374 48.5889 38.4619 48.4333H28.549L28.2092 47.5583H36.1961L36.0828 47.2667H33.7037L33.5904 46.975H34.7233C34.7233 46.8972 34.7044 46.8389 34.6667 46.8C34.6667 46.7611 34.6667 46.7222 34.6667 46.6833H34.4401L34.2702 46.1H33.9303L33.8736 45.5167H33.7603V45.225H31.9477C31.9099 45.1472 31.8911 45.05 31.8911 44.9333C31.8911 44.8167 31.8911 44.7194 31.8911 44.6417H30.2484L30.1917 44.0583H36.6492C36.6115 43.9806 36.5926 43.8833 36.5926 43.7667C36.5926 43.65 36.5926 43.5528 36.5926 43.475H37.4989V43.4167C37.4989 43.2222 37.4989 43.0278 37.4989 42.8333C37.4989 42.6389 37.5178 42.4639 37.5556 42.3083H35.1198C35.1576 42.1528 35.1765 42.0167 35.1765 41.9C35.1765 41.7444 35.1954 41.5889 35.2331 41.4333H39.1983C39.1983 41.3556 39.1983 41.2972 39.1983 41.2583C39.236 41.2194 39.2549 41.1806 39.2549 41.1417H35.2331C35.3086 40.9083 35.3464 40.7139 35.3464 40.5583H34.7233L34.8932 39.975H33.9303C34.0436 39.5472 34.1757 39.1583 34.3268 38.8083H34.78L35.0065 38.225H35.6296L36.1394 37.35H35.573C35.6863 37.1944 35.7807 37.0583 35.8562 36.9417C35.9695 36.7861 36.0639 36.6306 36.1394 36.475H35.6863L36.366 35.6H37.5556C37.5933 35.5222 37.6311 35.4639 37.6688 35.425C37.7066 35.3861 37.7444 35.3472 37.7821 35.3083H36.1961C36.3471 35.1528 36.4982 35.0167 36.6492 34.9C36.8003 34.7444 36.9513 34.5889 37.1024 34.4333H38.0087C38.2353 34.2389 38.4619 34.0444 38.6885 33.85C38.915 33.6167 39.1605 33.4222 39.4248 33.2667H40.4444C40.671 33.1111 40.8976 32.975 41.1242 32.8583C41.3508 32.7028 41.5962 32.5472 41.8606 32.3917H41.6906C41.7662 32.3139 41.8606 32.2556 41.9739 32.2167C42.0871 32.1778 42.1816 32.1389 42.2571 32.1H41.4641C41.5396 32.0222 41.634 31.9639 41.7473 31.925C41.8606 31.8861 41.9739 31.8472 42.0871 31.8083H41.5207C42.0494 31.575 42.597 31.3611 43.1634 31.1667C43.7676 30.9722 44.3718 30.7972 44.976 30.6417H45.8257C46.6943 30.4472 47.6006 30.2917 48.5447 30.175C49.5265 30.0583 50.5461 30 51.6035 30C53.6049 30 55.4931 30.2139 57.268 30.6417H56.4749C57.6834 30.9139 58.854 31.3028 59.9869 31.8083H60.4967C60.61 31.8472 60.7233 31.8861 60.8366 31.925C60.9499 31.9639 61.0632 32.0222 61.1765 32.1H61.9695C62.045 32.1389 62.1394 32.1778 62.2527 32.2167C62.366 32.2556 62.4604 32.3139 62.5359 32.3917H62.7059C62.9702 32.5472 63.2157 32.7028 63.4423 32.8583C63.7066 32.975 63.9521 33.1111 64.1786 33.2667H63.2157C63.5178 33.4222 63.7821 33.6167 64.0087 33.85C64.2731 34.0444 64.5185 34.2389 64.7451 34.4333H63.8954L64.8017 35.3083H66.3878L66.671 35.6H65.4815C65.6325 35.7556 65.7647 35.9111 65.878 36.0667C66.029 36.1833 66.1612 36.3194 66.2745 36.475H66.7277L67.4074 37.35H67.9172L68.427 38.225H67.8039C67.9172 38.4194 68.0116 38.6139 68.0871 38.8083H67.634C67.7473 39.0028 67.8417 39.1972 67.9172 39.3917C67.9927 39.5861 68.0683 39.7806 68.1438 39.975H69.1068C69.1823 40.2083 69.22 40.4028 69.22 40.5583H69.8998C69.9375 40.6361 69.9564 40.7333 69.9564 40.85C69.9564 40.9667 69.9753 41.0639 70.0131 41.1417H74.0349V41.4333H70.4096C70.4474 41.5889 70.4662 41.8028 70.4662 42.075V42.3083H68.3704C68.2193 43.0083 67.8417 43.3583 67.2375 43.3583H55.9085C55.3798 43.3583 54.9455 43.2806 54.6057 43.125C54.3036 42.9694 53.9826 42.7361 53.6427 42.425L53.4728 42.3083H55.5686C55.3798 42.1528 55.1155 41.9972 54.7756 41.8417C54.4357 41.6472 54.0015 41.5111 53.4728 41.4333H51.4336C50.6405 41.55 50.093 41.8417 49.7909 42.3083H52.2266C52.1133 42.5417 52.0566 42.775 52.0566 43.0083C52.0566 43.2028 52.0755 43.3583 52.1133 43.475H51.2636C51.3014 43.6694 51.4524 43.8639 51.7168 44.0583H45.3159C45.5425 44.2528 45.939 44.4472 46.5054 44.6417H48.1481C48.4503 44.7583 48.809 44.875 49.2244 44.9917C49.6776 45.0694 50.1496 45.1472 50.6405 45.225H52.4532C52.7553 45.2639 53.0763 45.3028 53.4161 45.3417C53.756 45.3806 54.1147 45.4389 54.4924 45.5167H54.549C55.191 45.5944 55.8141 45.6917 56.4183 45.8083C57.0225 45.8861 57.589 45.9833 58.1176 46.1H58.4575C58.9107 46.1778 59.3261 46.275 59.7037 46.3917C60.1191 46.4694 60.5156 46.5667 60.8932 46.6833H61.1198C61.3086 46.7222 61.4786 46.7611 61.6296 46.8C61.7807 46.8389 61.9317 46.8972 62.0828 46.975H61.0065C61.1576 47.0139 61.2898 47.0528 61.403 47.0917C61.5541 47.1306 61.7052 47.1889 61.8562 47.2667H64.2353C64.3486 47.3056 64.4619 47.3444 64.5752 47.3833C64.7262 47.4222 64.8584 47.4806 64.9717 47.5583H56.9847C57.74 47.8694 58.3442 48.1611 58.7974 48.4333H68.7102C68.9368 48.5889 69.1634 48.7444 69.39 48.9C69.6166 49.0167 69.8243 49.1528 70.0131 49.3083H57.098C57.1736 49.3472 57.2491 49.3861 57.3246 49.425C57.4001 49.4639 57.4568 49.5222 57.4946 49.6H62.9325C63.0458 49.6778 63.159 49.775 63.2723 49.8917C63.3856 50.0083 63.48 50.1056 63.5556 50.1833H62.7059C63.0835 50.5333 63.4045 50.9222 63.6688 51.35H60.7233C60.7988 51.4278 60.8744 51.525 60.9499 51.6417C61.0254 51.7583 61.0821 51.8556 61.1198 51.9333H72.3355L72.8453 52.8083H62.3094C62.3849 52.9639 62.4604 53.1194 62.5359 53.275C62.6115 53.3917 62.6681 53.5278 62.7059 53.6833H67.5773L67.7473 54.2667H68.5403L68.7102 54.85H69.7299C69.8054 55.0056 69.8431 55.2 69.8431 55.4333C69.8809 55.6278 69.9187 55.8222 69.9564 56.0167L70.0131 56.6H70.3529C70.3907 56.6778 70.4096 56.775 70.4096 56.8917C70.4096 57.0083 70.4096 57.1056 70.4096 57.1833H70.5795V58.0583H71.0893V58.2333C71.0893 58.3889 71.0704 58.5444 71.0327 58.7C71.0327 58.8556 71.0327 59.0306 71.0327 59.225H70.4662V59.5167H70.5795C70.5795 59.6722 70.5606 59.8278 70.5229 59.9833C70.5229 60.1 70.504 60.2361 70.4662 60.3917H70.6362L70.4662 61.2667H70.9194C70.8816 61.4222 70.8439 61.5778 70.8061 61.7333C70.7683 61.85 70.7117 61.9861 70.6362 62.1417H70.0131C70.0131 62.1806 69.9942 62.2194 69.9564 62.2583C69.9564 62.2972 69.9564 62.3556 69.9564 62.4333H71.3159L70.976 63.3083H67.1808C67.1431 63.4639 67.0675 63.6194 66.9542 63.775C66.8787 63.8917 66.8032 64.0278 66.7277 64.1833H74.7146L74.5447 64.475H78C77.9245 64.6306 77.8301 64.7861 77.7168 64.9417C77.6413 65.0583 77.5468 65.1944 77.4336 65.35H70.3529C70.3152 65.3889 70.2774 65.4278 70.2397 65.4667C70.2019 65.5056 70.1641 65.5639 70.1264 65.6417ZM55.3987 41.4333H57.098C56.9847 41.3944 56.8526 41.375 56.7015 41.375C56.5882 41.375 56.4561 41.375 56.305 41.375C56.154 41.375 56.0029 41.375 55.8519 41.375C55.7008 41.375 55.5497 41.3944 55.3987 41.4333Z" fill="#39E5E4"/>
<path d="M71.1264 66.6417H68.8039L68.2941 67.225H76.9608C76.923 67.2639 76.8853 67.3028 76.8475 67.3417C76.8097 67.3806 76.7531 67.4389 76.6776 67.5167H63.3094C63.1206 67.7111 62.9129 67.9056 62.6863 68.1C62.4975 68.2944 62.2898 68.4889 62.0632 68.6833H66.1983L65.4619 69.2667H73.1656L72.7124 69.5583H69.3704C69.3326 69.5972 69.2571 69.6361 69.1438 69.675C69.0683 69.7139 68.9927 69.7722 68.9172 69.85H65.122L63.5359 70.725H65.7451C65.2542 70.9583 64.7633 71.1722 64.2723 71.3667C63.7814 71.5222 63.2716 71.6972 62.7429 71.8917H60.7037C59.4198 72.2806 58.0225 72.5722 56.512 72.7667H56.7952C56.191 72.8444 55.5679 72.9028 54.9259 72.9417C54.284 72.9806 53.642 73 53 73C52.2825 73 51.565 72.9806 50.8475 72.9417C50.1678 72.9028 49.5069 72.8444 48.8649 72.7667H48.6383C47.0145 72.5722 45.5606 72.2806 44.2767 71.8917H46.3159C45.7495 71.6972 45.2208 71.5222 44.7298 71.3667C44.2389 71.1722 43.748 70.9583 43.2571 70.725H41.0479C40.7836 70.5694 40.5192 70.4333 40.2549 70.3167C39.9906 70.1611 39.7262 70.0056 39.4619 69.85H43.3137L42.8606 69.5583H46.2026C46.1649 69.4806 46.1082 69.4222 46.0327 69.3833C45.9572 69.3444 45.8816 69.3056 45.8061 69.2667H38.1024C37.9513 69.1889 37.8192 69.0917 37.7059 68.975C37.5926 68.8583 37.4793 68.7611 37.366 68.6833H33.1743C32.9855 68.4889 32.7967 68.2944 32.6078 68.1C32.3813 67.9056 32.1736 67.7111 31.9847 67.5167H45.3529C45.3152 67.4389 45.2774 67.3806 45.2397 67.3417C45.2019 67.3028 45.1641 67.2639 45.1264 67.225H36.4597C36.3086 67.0694 36.1576 66.875 36.0065 66.6417H38.329C38.2912 66.5639 38.2535 66.5056 38.2157 66.4667C38.1779 66.4278 38.1402 66.3889 38.1024 66.35H45.183L44.6732 65.475H41.1612L40.9913 65.1833H33.0044C32.9666 65.0278 32.9099 64.8917 32.8344 64.775C32.7589 64.6194 32.6834 64.4639 32.6078 64.3083H36.4031L36.0632 63.4333H34.7037L34.5904 63.1417H35.2135C35.1757 62.9861 35.138 62.85 35.1002 62.7333C35.0625 62.5778 35.0247 62.4222 34.9869 62.2667H34.5338C34.5338 62.1111 34.5149 61.975 34.4771 61.8583C34.4771 61.7028 34.4582 61.5472 34.4205 61.3917H33.9673C33.9673 61.2361 33.9484 61.1 33.9107 60.9833C33.9107 60.8667 33.9107 60.7306 33.9107 60.575V60.5167H33.854C33.854 60.4389 33.854 60.3806 33.854 60.3417C33.8918 60.3028 33.9107 60.2639 33.9107 60.225H35.2135C35.4023 59.6028 35.7988 59.2917 36.4031 59.2917H47.1656C47.7698 59.2917 48.223 59.3694 48.5251 59.525C48.8272 59.6806 49.167 59.9139 49.5447 60.225H48.2418L48.2985 60.2833C48.374 60.3222 48.4306 60.3611 48.4684 60.4C48.5439 60.4389 48.6006 60.4778 48.6383 60.5167H48.695C49.1859 60.9056 49.7901 61.1972 50.5076 61.3917H51.0174C51.5084 61.5472 52.1692 61.625 53 61.625C53.4909 61.625 53.9441 61.6056 54.3595 61.5667C54.7749 61.5278 55.1336 61.4694 55.4357 61.3917H55.2658C56.1344 61.1972 56.6819 60.9056 56.9085 60.5167H56.7952C56.8707 60.3611 56.9085 60.2639 56.9085 60.225H57.4749L57.5316 59.9917C57.5316 59.6417 57.3994 59.3306 57.1351 59.0583H56.6819C56.342 58.7083 55.7378 58.4167 54.8693 58.1833H54.6994C54.3595 58.0667 53.963 57.9694 53.5098 57.8917C53.0566 57.775 52.528 57.6778 51.9237 57.6H51.5839L49.2614 57.25C48.9971 57.2111 48.7328 57.1722 48.4684 57.1333C48.2418 57.0944 47.9964 57.0556 47.732 57.0167C46.1837 56.7444 44.6921 56.3556 43.2571 55.85H42.2375C41.7088 55.6556 41.2179 55.4611 40.7647 55.2667H39.9717C39.7829 55.1889 39.594 55.1111 39.4052 55.0333C39.2164 54.9167 39.0276 54.8 38.8388 54.6833H33.9107C33.6463 54.5278 33.4009 54.3917 33.1743 54.275C32.9477 54.1194 32.7211 53.9639 32.4946 53.8083H43.0305C42.8417 53.6528 42.6529 53.5167 42.4641 53.4C42.313 53.2444 42.1431 53.0889 41.9542 52.9333H30.6819C30.5686 52.8556 30.4742 52.7583 30.3987 52.6417C30.2854 52.525 30.191 52.4278 30.1155 52.35H33.061C32.7211 51.9611 32.4001 51.5722 32.098 51.1833H32.9477L32.6078 50.6H27.1699C27.1322 50.5222 27.0944 50.4639 27.0566 50.425C27.0189 50.3861 27 50.3472 27 50.3083H39.915C39.8395 50.1528 39.764 50.0167 39.6885 49.9C39.6129 49.7444 39.5374 49.5889 39.4619 49.4333H29.549L29.2092 48.5583H37.1961L37.0828 48.2667H34.7037L34.5904 47.975H35.7233C35.7233 47.8972 35.7044 47.8389 35.6667 47.8C35.6667 47.7611 35.6667 47.7222 35.6667 47.6833H35.4401L35.2702 47.1H34.9303L34.8736 46.5167H34.7603V46.225H32.9477C32.9099 46.1472 32.8911 46.05 32.8911 45.9333C32.8911 45.8167 32.8911 45.7194 32.8911 45.6417H31.2484L31.1917 45.0583H37.6492C37.6115 44.9806 37.5926 44.8833 37.5926 44.7667C37.5926 44.65 37.5926 44.5528 37.5926 44.475H38.4989V44.4167C38.4989 44.2222 38.4989 44.0278 38.4989 43.8333C38.4989 43.6389 38.5178 43.4639 38.5556 43.3083H36.1198C36.1576 43.1528 36.1765 43.0167 36.1765 42.9C36.1765 42.7444 36.1954 42.5889 36.2331 42.4333H40.1983C40.1983 42.3556 40.1983 42.2972 40.1983 42.2583C40.236 42.2194 40.2549 42.1806 40.2549 42.1417H36.2331C36.3086 41.9083 36.3464 41.7139 36.3464 41.5583H35.7233L35.8932 40.975H34.9303C35.0436 40.5472 35.1757 40.1583 35.3268 39.8083H35.78L36.0065 39.225H36.6296L37.1394 38.35H36.573C36.6863 38.1944 36.7807 38.0583 36.8562 37.9417C36.9695 37.7861 37.0639 37.6306 37.1394 37.475H36.6863L37.366 36.6H38.5556C38.5933 36.5222 38.6311 36.4639 38.6688 36.425C38.7066 36.3861 38.7444 36.3472 38.7821 36.3083H37.1961C37.3471 36.1528 37.4982 36.0167 37.6492 35.9C37.8003 35.7444 37.9513 35.5889 38.1024 35.4333H39.0087C39.2353 35.2389 39.4619 35.0444 39.6885 34.85C39.915 34.6167 40.1605 34.4222 40.4248 34.2667H41.4444C41.671 34.1111 41.8976 33.975 42.1242 33.8583C42.3508 33.7028 42.5962 33.5472 42.8606 33.3917H42.6906C42.7662 33.3139 42.8606 33.2556 42.9739 33.2167C43.0871 33.1778 43.1816 33.1389 43.2571 33.1H42.4641C42.5396 33.0222 42.634 32.9639 42.7473 32.925C42.8606 32.8861 42.9739 32.8472 43.0871 32.8083H42.5207C43.0494 32.575 43.597 32.3611 44.1634 32.1667C44.7676 31.9722 45.3718 31.7972 45.976 31.6417H46.8257C47.6943 31.4472 48.6006 31.2917 49.5447 31.175C50.5265 31.0583 51.5461 31 52.6035 31C54.6049 31 56.4931 31.2139 58.268 31.6417H57.4749C58.6834 31.9139 59.854 32.3028 60.9869 32.8083H61.4967C61.61 32.8472 61.7233 32.8861 61.8366 32.925C61.9499 32.9639 62.0632 33.0222 62.1765 33.1H62.9695C63.045 33.1389 63.1394 33.1778 63.2527 33.2167C63.366 33.2556 63.4604 33.3139 63.5359 33.3917H63.7059C63.9702 33.5472 64.2157 33.7028 64.4423 33.8583C64.7066 33.975 64.9521 34.1111 65.1786 34.2667H64.2157C64.5178 34.4222 64.7821 34.6167 65.0087 34.85C65.2731 35.0444 65.5185 35.2389 65.7451 35.4333H64.8954L65.8017 36.3083H67.3878L67.671 36.6H66.4815C66.6325 36.7556 66.7647 36.9111 66.878 37.0667C67.029 37.1833 67.1612 37.3194 67.2745 37.475H67.7277L68.4074 38.35H68.9172L69.427 39.225H68.8039C68.9172 39.4194 69.0116 39.6139 69.0871 39.8083H68.634C68.7473 40.0028 68.8417 40.1972 68.9172 40.3917C68.9927 40.5861 69.0683 40.7806 69.1438 40.975H70.1068C70.1823 41.2083 70.22 41.4028 70.22 41.5583H70.8998C70.9375 41.6361 70.9564 41.7333 70.9564 41.85C70.9564 41.9667 70.9753 42.0639 71.0131 42.1417H75.0349V42.4333H71.4096C71.4474 42.5889 71.4662 42.8028 71.4662 43.075V43.3083H69.3704C69.2193 44.0083 68.8417 44.3583 68.2375 44.3583H56.9085C56.3798 44.3583 55.9455 44.2806 55.6057 44.125C55.3036 43.9694 54.9826 43.7361 54.6427 43.425L54.4728 43.3083H56.5686C56.3798 43.1528 56.1155 42.9972 55.7756 42.8417C55.4357 42.6472 55.0015 42.5111 54.4728 42.4333H52.4336C51.6405 42.55 51.093 42.8417 50.7909 43.3083H53.2266C53.1133 43.5417 53.0566 43.775 53.0566 44.0083C53.0566 44.2028 53.0755 44.3583 53.1133 44.475H52.2636C52.3014 44.6694 52.4524 44.8639 52.7168 45.0583H46.3159C46.5425 45.2528 46.939 45.4472 47.5054 45.6417H49.1481C49.4503 45.7583 49.809 45.875 50.2244 45.9917C50.6776 46.0694 51.1496 46.1472 51.6405 46.225H53.4532C53.7553 46.2639 54.0763 46.3028 54.4161 46.3417C54.756 46.3806 55.1147 46.4389 55.4924 46.5167H55.549C56.191 46.5944 56.8141 46.6917 57.4183 46.8083C58.0225 46.8861 58.589 46.9833 59.1176 47.1H59.4575C59.9107 47.1778 60.3261 47.275 60.7037 47.3917C61.1191 47.4694 61.5156 47.5667 61.8932 47.6833H62.1198C62.3086 47.7222 62.4786 47.7611 62.6296 47.8C62.7807 47.8389 62.9317 47.8972 63.0828 47.975H62.0065C62.1576 48.0139 62.2898 48.0528 62.403 48.0917C62.5541 48.1306 62.7052 48.1889 62.8562 48.2667H65.2353C65.3486 48.3056 65.4619 48.3444 65.5752 48.3833C65.7262 48.4222 65.8584 48.4806 65.9717 48.5583H57.9847C58.74 48.8694 59.3442 49.1611 59.7974 49.4333H69.7102C69.9368 49.5889 70.1634 49.7444 70.39 49.9C70.6166 50.0167 70.8243 50.1528 71.0131 50.3083H58.098C58.1736 50.3472 58.2491 50.3861 58.3246 50.425C58.4001 50.4639 58.4568 50.5222 58.4946 50.6H63.9325C64.0458 50.6778 64.159 50.775 64.2723 50.8917C64.3856 51.0083 64.48 51.1056 64.5556 51.1833H63.7059C64.0835 51.5333 64.4045 51.9222 64.6688 52.35H61.7233C61.7988 52.4278 61.8744 52.525 61.9499 52.6417C62.0254 52.7583 62.0821 52.8556 62.1198 52.9333H73.3355L73.8453 53.8083H63.3094C63.3849 53.9639 63.4604 54.1194 63.5359 54.275C63.6115 54.3917 63.6681 54.5278 63.7059 54.6833H68.5773L68.7473 55.2667H69.5403L69.7102 55.85H70.7299C70.8054 56.0056 70.8431 56.2 70.8431 56.4333C70.8809 56.6278 70.9187 56.8222 70.9564 57.0167L71.0131 57.6H71.3529C71.3907 57.6778 71.4096 57.775 71.4096 57.8917C71.4096 58.0083 71.4096 58.1056 71.4096 58.1833H71.5795V59.0583H72.0893V59.2333C72.0893 59.3889 72.0704 59.5444 72.0327 59.7C72.0327 59.8556 72.0327 60.0306 72.0327 60.225H71.4662V60.5167H71.5795C71.5795 60.6722 71.5606 60.8278 71.5229 60.9833C71.5229 61.1 71.504 61.2361 71.4662 61.3917H71.6362L71.4662 62.2667H71.9194C71.8816 62.4222 71.8439 62.5778 71.8061 62.7333C71.7683 62.85 71.7117 62.9861 71.6362 63.1417H71.0131C71.0131 63.1806 70.9942 63.2194 70.9564 63.2583C70.9564 63.2972 70.9564 63.3556 70.9564 63.4333H72.3159L71.976 64.3083H68.1808C68.1431 64.4639 68.0675 64.6194 67.9542 64.775C67.8787 64.8917 67.8032 65.0278 67.7277 65.1833H75.7146L75.5447 65.475H79C78.9245 65.6306 78.8301 65.7861 78.7168 65.9417C78.6413 66.0583 78.5468 66.1944 78.4336 66.35H71.3529C71.3152 66.3889 71.2774 66.4278 71.2397 66.4667C71.2019 66.5056 71.1641 66.5639 71.1264 66.6417ZM56.3987 42.4333H58.098C57.9847 42.3944 57.8526 42.375 57.7015 42.375C57.5882 42.375 57.4561 42.375 57.305 42.375C57.154 42.375 57.0029 42.375 56.8519 42.375C56.7008 42.375 56.5497 42.3944 56.3987 42.4333Z" fill="#101A1B"/>
</svg>
